<?xml version="1.0" encoding="UTF-8"?>
<!-- Created with Inkscape (http://www.inkscape.org/) -->
<svg width="1400" height="700" version="1.1" viewBox="0 0 370.41666 185.20834" xmlns="http://www.w3.org/2000/svg" xmlns:cc="http://creativecommons.org/ns#" xmlns:dc="http://purl.org/dc/elements/1.1/" xmlns:rdf="http://www.w3.org/1999/02/22-rdf-syntax-ns#" xmlns:xlink="http://www.w3.org/1999/xlink">
 <title>rugk avatar pattern</title>
 <defs>
  <linearGradient id="linearGradient1516" x1="159.3" x2="183.53" y1="144.18" y2="163.26" gradientTransform="translate(-130.16 12.294)" gradientUnits="userSpaceOnUse" spreadMethod="repeat">
   <stop stop-color="#5f7046" offset="0"/>
   <stop stop-color="#9eb977" offset=".031353"/>
   <stop stop-color="#c8e997" offset=".12642"/>
   <stop stop-color="#d2ff8f" offset=".1543"/>
   <stop stop-color="#c4e693" offset=".17369"/>
   <stop stop-color="#a6cc6c" offset=".31401"/>
   <stop stop-color="#5f7046" offset="1"/>
  </linearGradient>
  <linearGradient id="linearGradient4800">
   <stop stop-color="#ff9840" stop-opacity=".90196" offset="0"/>
   <stop stop-color="#ef984e" stop-opacity=".86275" offset="1"/>
  </linearGradient>
  <filter id="filter3806-0" color-interpolation-filters="sRGB">
   <feGaussianBlur stdDeviation="2.4647722"/>
  </filter>
  <linearGradient id="linearGradient3859" x1="54.512" x2="76.595" y1="31.969" y2="32.045" gradientTransform="matrix(1.8066 0 0 1.8066 532.86 369.41)" gradientUnits="userSpaceOnUse">
   <stop stop-color="#8e9194" stop-opacity=".10728" offset="0"/>
   <stop stop-color="#a1a3a6" stop-opacity=".11877" offset=".15319"/>
   <stop stop-color="#b4b6b8" stop-opacity=".33333" offset=".7456"/>
   <stop stop-color="#dbdcdd" stop-opacity=".21839" offset="1"/>
  </linearGradient>
  <linearGradient id="linearGradient3851" x1="66.81" x2="49.402" y1="49.537" y2="35.062" gradientTransform="matrix(1.8066 0 0 1.8066 532.86 369.41)" gradientUnits="userSpaceOnUse">
   <stop stop-color="#ffc84f" stop-opacity=".23372" offset="0"/>
   <stop stop-color="#ffc84f" stop-opacity=".26437" offset="1"/>
  </linearGradient>
  <radialGradient id="radialGradient3970" cx="-229.3" cy="150.3" r="61.619" gradientTransform="matrix(-.90164 .32787 -.34174 -.93979 305.78 494.82)" gradientUnits="userSpaceOnUse">
   <stop stop-color="#fff" stop-opacity=".94118" offset="0"/>
   <stop stop-color="#dcdcdc" stop-opacity=".94118" offset="1"/>
  </radialGradient>
  <radialGradient id="radialGradient3972" cx="-241.43" cy="166.46" r="61.619" gradientTransform="matrix(.42623 0 0 .42623 580.23 222.45)" gradientUnits="userSpaceOnUse" xlink:href="#linearGradient3814"/>
  <linearGradient id="linearGradient3814">
   <stop stop-color="#fff5ee" offset="0"/>
   <stop stop-color="#338b13" offset="1"/>
  </linearGradient>
  <filter id="filter3806" color-interpolation-filters="sRGB">
   <feGaussianBlur stdDeviation="2.4647722"/>
  </filter>
  <filter id="filter3838" color-interpolation-filters="sRGB">
   <feGaussianBlur stdDeviation="0.37600563"/>
  </filter>
  <radialGradient id="radialGradient4578-3" cx="435.97" cy="595.21" r="191.43" gradientTransform="matrix(-1.2088 1.2105 -.91742 -.91608 1504.2 379.75)" gradientUnits="userSpaceOnUse">
   <stop stop-color="#b0d972" offset="0"/>
   <stop stop-color="#5f7046" offset="1"/>
  </radialGradient>
  <linearGradient id="linearGradient3980" x1="364.65" x2="364.49" y1="465.92" y2="587.34" gradientTransform="translate(79.69 7.0187)" gradientUnits="userSpaceOnUse">
   <stop stop-color="#b0d972" offset="0"/>
   <stop stop-color="#98c15a" offset="1"/>
  </linearGradient>
  <linearGradient id="linearGradient3982" x1="356.1" x2="455.89" y1="391.82" y2="445.92" gradientTransform="translate(79.69 7.0187)" gradientUnits="userSpaceOnUse">
   <stop stop-color="#77934d" offset="0"/>
   <stop stop-color="#a9cd71" offset="1"/>
  </linearGradient>
  <radialGradient id="radialGradient4808" cx="-229.3" cy="150.3" r="61.619" gradientTransform="matrix(-.90164 .32787 -.34174 -.93979 300.86 642.8)" gradientUnits="userSpaceOnUse" xlink:href="#linearGradient4800"/>
  <filter id="filter3886" color-interpolation-filters="sRGB">
   <feGaussianBlur stdDeviation="2.4647722"/>
  </filter>
  <radialGradient id="radialGradient3976" cx="-229.3" cy="150.3" r="61.619" gradientTransform="matrix(-.90164 .32787 -.34174 -.93979 164.36 536.25)" gradientUnits="userSpaceOnUse">
   <stop stop-color="#fff" stop-opacity=".54902" offset="0"/>
   <stop stop-color="#dcdcdc" stop-opacity=".54902" offset="1"/>
  </radialGradient>
  <radialGradient id="radialGradient3978" cx="-241.43" cy="166.46" r="61.619" gradientTransform="matrix(.42623 0 0 .42623 434.23 280.2)" gradientUnits="userSpaceOnUse" xlink:href="#linearGradient3814"/>
  <clipPath id="clipPath1097">
   <path d="m-4.6621 366.97 80.009-16.867 17.732-47.573-83.901-36.328-13.839 100.77" fill="none" stroke="#000" stroke-width="1px"/>
  </clipPath>
  <linearGradient id="linearGradient2430" x1="54.512" x2="76.595" y1="31.969" y2="32.045" gradientTransform="matrix(1.8066 0 0 1.8066 532.86 369.41)" gradientUnits="userSpaceOnUse" xlink:href="#linearGradient3859"/>
  <linearGradient id="linearGradient2432" x1="66.81" x2="49.402" y1="49.537" y2="35.062" gradientTransform="matrix(1.8066 0 0 1.8066 532.86 369.41)" gradientUnits="userSpaceOnUse" xlink:href="#linearGradient3851"/>
 </defs>
 <metadata>
  <rdf:RDF>
   <cc:Work rdf:about="">
    <dc:format>image/svg+xml</dc:format>
    <dc:type rdf:resource="http://purl.org/dc/dcmitype/StillImage"/>
    <dc:title>rugk avatar pattern</dc:title>
    <cc:license rdf:resource="http://creativecommons.org/publicdomain/zero/1.0/"/>
    <dc:rights>
     <cc:Agent>
      <dc:title/>
     </cc:Agent>
    </dc:rights>
    <dc:creator>
     <cc:Agent>
      <dc:title>rugk</dc:title>
     </cc:Agent>
    </dc:creator>
   </cc:Work>
   <cc:License rdf:about="http://creativecommons.org/publicdomain/zero/1.0/">
    <cc:permits rdf:resource="http://creativecommons.org/ns#Reproduction"/>
    <cc:permits rdf:resource="http://creativecommons.org/ns#Distribution"/>
    <cc:permits rdf:resource="http://creativecommons.org/ns#DerivativeWorks"/>
   </cc:License>
  </rdf:RDF>
 </metadata>
 <g transform="translate(0 -111.79)">
  <rect y="111.79" width="370.42" height="185.21" fill="url(#linearGradient1516)"/>
  <g transform="translate(6.5481)">
   <g transform="matrix(.042731 .0006654 -.0006654 .042731 -11.743 261.28)">
    <g transform="translate(0 -1.8523)" fill-rule="evenodd">
     <path d="m449.06 232.94c-25.244 0-46.944 15.175-56.469 36.906 40.895 0.29595 81.825 13.583 116.09 40.312 1.306-4.9834 2-10.2 2-15.594 0-34.031-27.594-61.625-61.625-61.625zm39.469 99.531c-0.72048 0.17797-1.4574 0.36863-2.1875 0.5625 0.73078-0.19398 1.4663-0.38446 2.1875-0.5625zm-28.188 9.7812c-1.2023 0.51598-2.4088 1.0511-3.625 1.5938 1.2227-0.54571 2.4164-1.075 3.625-1.5938z" color="#000000" fill="url(#radialGradient3970)" stroke="#5f7046" stroke-width="1.1577"/>
     <path d="m477.34 267.12c-9.8314 0-18.404 5.4086-22.906 13.406 16.296 5.7025 32.014 13.696 46.656 24 1.5879-3.3834 2.5-7.1403 2.5-11.125 0-14.505-11.745-26.281-26.25-26.281z" color="#000000" fill="url(#radialGradient3972)"/>
     <path d="m478.74 284.12c-2.8847 0-5.4844 1.3113-7.1875 3.375 5.4594 2.5305 10.835 5.3274 16.094 8.4062 0.22416-0.79925 0.375-1.6291 0.375-2.5 0-5.1284-4.1529-9.2812-9.2812-9.2812z" color="#000000"/>
     <path d="m449.06 232.94c-21.214 0-38.492 16.777-39.344 37.781 25.154 2.4339 49.979 9.8343 72.875 22.312 3.7142-6.0109 5.8438-13.103 5.8438-20.688 0-21.758-17.617-39.406-39.375-39.406z" color="#000000" fill="#fff" fill-opacity=".29412" filter="url(#filter3806)"/>
     <path d="m474.75 283.81c-2.5026 0-4.682 0.97221-5.875 2.4375 3.837 1.7062 7.6297 3.5574 11.375 5.5312 0.84456-0.83164 1.3438-1.8536 1.3438-2.9688 0-2.7614-3.065-5-6.8438-5z" color="#000000" fill="#fffafa" fill-opacity=".92574" filter="url(#filter3838)"/>
    </g>
    <g stroke="#5f7046">
     <path d="m389.77 267.96c-52.062 0.38224-103.78 21.879-141.25 63.719-70.532 78.757-63.882 199.78 14.875 270.31 76.544 68.55 193.01 64.166 264.25-8.4375-70.196 50.426-291.47-96.438-291.47-96.438s191.5-169.49 272.84-169.31c10.782 0.0239 20.5 2.6398 28.719 8.5312-5.8352-6.9535-12.169-13.501-18.938-19.562-36.917-33.062-83.094-49.15-129.03-48.812zm143.66 318.87c-0.23231 0.46699-0.47734 0.92991-0.75 1.375 0.34339-0.37744 0.69021-0.74419 1.0312-1.125l-0.28125-0.25z" color="#000000" fill="url(#radialGradient4578-3)" fill-rule="evenodd"/>
     <path d="m452.91 452.94-216.73 44.179s221.28 146.86 291.48 96.433c38.314-27.523-74.748-140.61-74.748-140.61z" fill="url(#linearGradient3980)"/>
     <path d="m509.03 327.8c-81.34-0.17987-272.85 169.32-272.85 169.32l216.73-44.179s123.19-89.052 84.873-116.58c-8.226-5.9093-17.953-8.5386-28.75-8.5625z" fill="url(#linearGradient3982)"/>
    </g>
    <g transform="translate(-25.964 -2.8725)">
     <g transform="matrix(.81302 0 0 .81302 107.85 103.78)">
      <g transform="matrix(1.2028 0 0 1.2028 -87.129 -87.326)" fill-rule="evenodd">
       <path d="m505.74 442.54a61.62 61.62 0 1 1 -123.24 0 61.62 61.62 0 1 1 123.24 0z" color="#000000" fill="url(#radialGradient4808)"/>
       <path transform="matrix(.63934 0 0 .63934 600.11 314.59)" d="m-179.81 166.46a61.62 61.62 0 1 1 -123.24 0 61.62 61.62 0 1 1 123.24 0z" color="#000000" fill="#fff" fill-opacity=".13725" filter="url(#filter3806-0)"/>
      </g>
     </g>
     <g transform="matrix(.81302 0 0 .81302 257.08 117.85)">
      <path d="m331.58 427.14a68.096 68.096 0 1 1 -136.19 0 68.096 68.096 0 1 1 136.19 0z" color="#000000" fill="#ffe8d5" fill-opacity=".057471" fill-rule="evenodd" stroke-width="1.1051"/>
     </g>
     <g transform="matrix(.52582 .2009 -.2009 .52582 224.92 80.796)">
      <path d="m632.24 438.14v-12.833s0.41479-9.255 13.661-9.1076c14.848 0.16531 15.323 7.1592 15.179 7.5898v14.352h-7.1757v-11.04s0-5.3818-7.1757-5.5198-7.3137 5.3818-7.3137 5.3818v11.178z" fill="url(#linearGradient2430)"/>
      <rect x="628.93" y="438.14" width="35.741" height="30.497" ry="1.7939" fill="url(#linearGradient2432)"/>
      <path d="m643.62 464.91 0.0804-11.359s-3.5447-0.48337-3.5447-6.0421 6.5333-5.6393 6.5333-5.6393 6.7041 0.0132 6.7594 5.2365c0.0602 5.7197-3.3835 6.3645-3.3835 6.3645l-0.055 11.381z" fill="#6d3f04" fill-opacity=".24138"/>
     </g>
    </g>
    <path d="m365.24 338.71a61.62 61.62 0 1 1 -123.24 0 61.62 61.62 0 1 1 123.24 0z" color="#000000" fill="#d3d3d3" fill-opacity=".96078" fill-rule="evenodd" filter="url(#filter3886)"/>
    <g transform="translate(0 -1.8523)" fill-rule="evenodd">
     <path d="m369.24 335.99a61.62 61.62 0 1 1 -123.24 0 61.62 61.62 0 1 1 123.24 0z" color="#000000" fill="url(#radialGradient3976)"/>
     <path d="m357.59 351.15a26.264 26.264 0 1 1 -52.529 0 26.264 26.264 0 1 1 52.529 0z" color="#000000" fill="url(#radialGradient3978)" stroke-width=".42623"/>
     <path d="m340.99 352.43a9.2857 9.2857 0 1 1 -18.571 0 9.2857 9.2857 0 1 1 18.571 0z" color="#000000"/>
     <path transform="matrix(.63934 0 0 .63934 461.98 207.34)" d="m-179.81 166.46a61.62 61.62 0 1 1 -123.24 0 61.62 61.62 0 1 1 123.24 0z" color="#000000" fill="#fff" fill-opacity=".29412" filter="url(#filter3806)"/>
     <path transform="matrix(.73684 0 0 .53846 434 16.985)" d="m-132.86 612.36a9.2857 9.2857 0 1 1 -18.571 0 9.2857 9.2857 0 1 1 18.571 0z" color="#000000" fill="#fffafa" fill-opacity=".92574" filter="url(#filter3838)"/>
    </g>
    <path transform="translate(241.6 -29.349)" d="m127.64 363.49c1e-3 34.033-27.587 61.622-61.62 61.622-34.033 0-65.827-23.584-65.826-57.617-3.902-36.958 32.401-67.732 66.426-67.03 32.003 0.6606 61 28.998 61.019 63.024z" clip-path="url(#clipPath1097)" color="#000000" fill="none" stroke="#5f7046" stroke-width="1.1577"/>
   </g>
  </g>
  <g transform="translate(6.5815 -.027514)">
   <g transform="rotate(.22716 -93.094 -3302.2)">
    <g transform="matrix(.042736 0 0 .042736 2.1337 261.14)">
     <g transform="translate(136.42 -2.8725)">
      <g transform="matrix(.81302 0 0 .81302 107.85 103.78)">
       <g transform="matrix(1.2028 0 0 1.2028 -87.129 -87.326)" fill-rule="evenodd">
        <path d="m505.74 442.54a61.62 61.62 0 1 1 -123.24 0 61.62 61.62 0 1 1 123.24 0z" color="#000000" fill="url(#radialGradient4808)"/>
        <path transform="matrix(.63934 0 0 .63934 600.11 314.59)" d="m-179.81 166.46a61.62 61.62 0 1 1 -123.24 0 61.62 61.62 0 1 1 123.24 0z" color="#000000" fill="#fff" fill-opacity=".13725" filter="url(#filter3806-0)"/>
       </g>
      </g>
      <g transform="matrix(.81302 0 0 .81302 257.08 117.85)">
       <path d="m331.58 427.14a68.096 68.096 0 1 1 -136.19 0 68.096 68.096 0 1 1 136.19 0z" color="#000000" fill="#ffe8d5" fill-opacity=".057471" fill-rule="evenodd" stroke-width="1.1051"/>
      </g>
      <g transform="matrix(.52582 .2009 -.2009 .52582 224.92 80.796)">
       <path d="m632.24 438.14v-12.833s0.41479-9.255 13.661-9.1076c14.848 0.16531 15.323 7.1592 15.179 7.5898v14.352h-7.1757v-11.04s0-5.3818-7.1757-5.5198-7.3137 5.3818-7.3137 5.3818v11.178z" fill="url(#linearGradient2430)"/>
       <rect x="628.93" y="438.14" width="35.741" height="30.497" ry="1.7939" fill="url(#linearGradient2432)"/>
       <path d="m643.62 464.91 0.0804-11.359s-3.5447-0.48337-3.5447-6.0421 6.5333-5.6393 6.5333-5.6393 6.7041 0.0132 6.7594 5.2365c0.0602 5.7197-3.3835 6.3645-3.3835 6.3645l-0.055 11.381z" fill="#6d3f04" fill-opacity=".24138"/>
      </g>
     </g>
     <g transform="translate(298.8 -2.8725)">
      <g transform="matrix(.81302 0 0 .81302 107.85 103.78)">
       <g transform="matrix(1.2028 0 0 1.2028 -87.129 -87.326)" fill-rule="evenodd">
        <path d="m505.74 442.54a61.62 61.62 0 1 1 -123.24 0 61.62 61.62 0 1 1 123.24 0z" color="#000000" fill="url(#radialGradient4808)"/>
        <path transform="matrix(.63934 0 0 .63934 600.11 314.59)" d="m-179.81 166.46a61.62 61.62 0 1 1 -123.24 0 61.62 61.62 0 1 1 123.24 0z" color="#000000" fill="#fff" fill-opacity=".13725" filter="url(#filter3806-0)"/>
       </g>
      </g>
      <g transform="matrix(.81302 0 0 .81302 257.08 117.85)">
       <path d="m331.58 427.14a68.096 68.096 0 1 1 -136.19 0 68.096 68.096 0 1 1 136.19 0z" color="#000000" fill="#ffe8d5" fill-opacity=".057471" fill-rule="evenodd" stroke-width="1.1051"/>
      </g>
      <g transform="matrix(.52582 .2009 -.2009 .52582 224.92 80.796)">
       <path d="m632.24 438.14v-12.833s0.41479-9.255 13.661-9.1076c14.848 0.16531 15.323 7.1592 15.179 7.5898v14.352h-7.1757v-11.04s0-5.3818-7.1757-5.5198-7.3137 5.3818-7.3137 5.3818v11.178z" fill="url(#linearGradient2430)"/>
       <rect x="628.93" y="438.14" width="35.741" height="30.497" ry="1.7939" fill="url(#linearGradient2432)"/>
       <path d="m643.62 464.91 0.0804-11.359s-3.5447-0.48337-3.5447-6.0421 6.5333-5.6393 6.5333-5.6393 6.7041 0.0132 6.7594 5.2365c0.0602 5.7197-3.3835 6.3645-3.3835 6.3645l-0.055 11.381z" fill="#6d3f04" fill-opacity=".24138"/>
      </g>
     </g>
     <g transform="translate(461.18 -2.8725)">
      <g transform="matrix(.81302 0 0 .81302 107.85 103.78)">
       <g transform="matrix(1.2028 0 0 1.2028 -87.129 -87.326)" fill-rule="evenodd">
        <path d="m505.74 442.54a61.62 61.62 0 1 1 -123.24 0 61.62 61.62 0 1 1 123.24 0z" color="#000000" fill="url(#radialGradient4808)"/>
        <path transform="matrix(.63934 0 0 .63934 600.11 314.59)" d="m-179.81 166.46a61.62 61.62 0 1 1 -123.24 0 61.62 61.62 0 1 1 123.24 0z" color="#000000" fill="#fff" fill-opacity=".13725" filter="url(#filter3806-0)"/>
       </g>
      </g>
      <g transform="matrix(.81302 0 0 .81302 257.08 117.85)">
       <path d="m331.58 427.14a68.096 68.096 0 1 1 -136.19 0 68.096 68.096 0 1 1 136.19 0z" color="#000000" fill="#ffe8d5" fill-opacity=".057471" fill-rule="evenodd" stroke-width="1.1051"/>
      </g>
      <g transform="matrix(.52582 .2009 -.2009 .52582 224.92 80.796)">
       <path d="m632.24 438.14v-12.833s0.41479-9.255 13.661-9.1076c14.848 0.16531 15.323 7.1592 15.179 7.5898v14.352h-7.1757v-11.04s0-5.3818-7.1757-5.5198-7.3137 5.3818-7.3137 5.3818v11.178z" fill="url(#linearGradient2430)"/>
       <rect x="628.93" y="438.14" width="35.741" height="30.497" ry="1.7939" fill="url(#linearGradient2432)"/>
       <path d="m643.62 464.91 0.0804-11.359s-3.5447-0.48337-3.5447-6.0421 6.5333-5.6393 6.5333-5.6393 6.7041 0.0132 6.7594 5.2365c0.0602 5.7197-3.3835 6.3645-3.3835 6.3645l-0.055 11.381z" fill="#6d3f04" fill-opacity=".24138"/>
      </g>
     </g>
    </g>
   </g>
   <g transform="rotate(.22716 -82.602 1990.5)">
    <g transform="matrix(.042736 0 0 .042736 2.1337 261.14)">
     <g transform="translate(136.42 -2.8725)">
      <g transform="matrix(.81302 0 0 .81302 107.85 103.78)">
       <g transform="matrix(1.2028 0 0 1.2028 -87.129 -87.326)" fill-rule="evenodd">
        <path d="m505.74 442.54a61.62 61.62 0 1 1 -123.24 0 61.62 61.62 0 1 1 123.24 0z" color="#000000" fill="url(#radialGradient4808)"/>
        <path transform="matrix(.63934 0 0 .63934 600.11 314.59)" d="m-179.81 166.46a61.62 61.62 0 1 1 -123.24 0 61.62 61.62 0 1 1 123.24 0z" color="#000000" fill="#fff" fill-opacity=".13725" filter="url(#filter3806-0)"/>
       </g>
      </g>
      <g transform="matrix(.81302 0 0 .81302 257.08 117.85)">
       <path d="m331.58 427.14a68.096 68.096 0 1 1 -136.19 0 68.096 68.096 0 1 1 136.19 0z" color="#000000" fill="#ffe8d5" fill-opacity=".057471" fill-rule="evenodd" stroke-width="1.1051"/>
      </g>
      <g transform="matrix(.52582 .2009 -.2009 .52582 224.92 80.796)">
       <path d="m632.24 438.14v-12.833s0.41479-9.255 13.661-9.1076c14.848 0.16531 15.323 7.1592 15.179 7.5898v14.352h-7.1757v-11.04s0-5.3818-7.1757-5.5198-7.3137 5.3818-7.3137 5.3818v11.178z" fill="url(#linearGradient2430)"/>
       <rect x="628.93" y="438.14" width="35.741" height="30.497" ry="1.7939" fill="url(#linearGradient2432)"/>
       <path d="m643.62 464.91 0.0804-11.359s-3.5447-0.48337-3.5447-6.0421 6.5333-5.6393 6.5333-5.6393 6.7041 0.0132 6.7594 5.2365c0.0602 5.7197-3.3835 6.3645-3.3835 6.3645l-0.055 11.381z" fill="#6d3f04" fill-opacity=".24138"/>
      </g>
     </g>
     <g transform="translate(298.8 -2.8725)">
      <g transform="matrix(.81302 0 0 .81302 107.85 103.78)">
       <g transform="matrix(1.2028 0 0 1.2028 -87.129 -87.326)" fill-rule="evenodd">
        <path d="m505.74 442.54a61.62 61.62 0 1 1 -123.24 0 61.62 61.62 0 1 1 123.24 0z" color="#000000" fill="url(#radialGradient4808)"/>
        <path transform="matrix(.63934 0 0 .63934 600.11 314.59)" d="m-179.81 166.46a61.62 61.62 0 1 1 -123.24 0 61.62 61.62 0 1 1 123.24 0z" color="#000000" fill="#fff" fill-opacity=".13725" filter="url(#filter3806-0)"/>
       </g>
      </g>
      <g transform="matrix(.81302 0 0 .81302 257.08 117.85)">
       <path d="m331.58 427.14a68.096 68.096 0 1 1 -136.19 0 68.096 68.096 0 1 1 136.19 0z" color="#000000" fill="#ffe8d5" fill-opacity=".057471" fill-rule="evenodd" stroke-width="1.1051"/>
      </g>
      <g transform="matrix(.52582 .2009 -.2009 .52582 224.92 80.796)">
       <path d="m632.24 438.14v-12.833s0.41479-9.255 13.661-9.1076c14.848 0.16531 15.323 7.1592 15.179 7.5898v14.352h-7.1757v-11.04s0-5.3818-7.1757-5.5198-7.3137 5.3818-7.3137 5.3818v11.178z" fill="url(#linearGradient2430)"/>
       <rect x="628.93" y="438.14" width="35.741" height="30.497" ry="1.7939" fill="url(#linearGradient2432)"/>
       <path d="m643.62 464.91 0.0804-11.359s-3.5447-0.48337-3.5447-6.0421 6.5333-5.6393 6.5333-5.6393 6.7041 0.0132 6.7594 5.2365c0.0602 5.7197-3.3835 6.3645-3.3835 6.3645l-0.055 11.381z" fill="#6d3f04" fill-opacity=".24138"/>
      </g>
     </g>
     <g transform="translate(461.18 -2.8725)">
      <g transform="matrix(.81302 0 0 .81302 107.85 103.78)">
       <g transform="matrix(1.2028 0 0 1.2028 -87.129 -87.326)" fill-rule="evenodd">
        <path d="m505.74 442.54a61.62 61.62 0 1 1 -123.24 0 61.62 61.62 0 1 1 123.24 0z" color="#000000" fill="url(#radialGradient4808)"/>
        <path transform="matrix(.63934 0 0 .63934 600.11 314.59)" d="m-179.81 166.46a61.62 61.62 0 1 1 -123.24 0 61.62 61.62 0 1 1 123.24 0z" color="#000000" fill="#fff" fill-opacity=".13725" filter="url(#filter3806-0)"/>
       </g>
      </g>
      <g transform="matrix(.81302 0 0 .81302 257.08 117.85)">
       <path d="m331.58 427.14a68.096 68.096 0 1 1 -136.19 0 68.096 68.096 0 1 1 136.19 0z" color="#000000" fill="#ffe8d5" fill-opacity=".057471" fill-rule="evenodd" stroke-width="1.1051"/>
      </g>
      <g transform="matrix(.52582 .2009 -.2009 .52582 224.92 80.796)">
       <path d="m632.24 438.14v-12.833s0.41479-9.255 13.661-9.1076c14.848 0.16531 15.323 7.1592 15.179 7.5898v14.352h-7.1757v-11.04s0-5.3818-7.1757-5.5198-7.3137 5.3818-7.3137 5.3818v11.178z" fill="url(#linearGradient2430)"/>
       <rect x="628.93" y="438.14" width="35.741" height="30.497" ry="1.7939" fill="url(#linearGradient2432)"/>
       <path d="m643.62 464.91 0.0804-11.359s-3.5447-0.48337-3.5447-6.0421 6.5333-5.6393 6.5333-5.6393 6.7041 0.0132 6.7594 5.2365c0.0602 5.7197-3.3835 6.3645-3.3835 6.3645l-0.055 11.381z" fill="#6d3f04" fill-opacity=".24138"/>
      </g>
     </g>
    </g>
   </g>
   <g transform="rotate(.22716 -72.11 7283.2)">
    <g transform="matrix(.042736 0 0 .042736 2.1337 261.14)">
     <g transform="translate(136.42 -2.8725)">
      <g transform="matrix(.81302 0 0 .81302 107.85 103.78)">
       <g transform="matrix(1.2028 0 0 1.2028 -87.129 -87.326)" fill-rule="evenodd">
        <path d="m505.74 442.54a61.62 61.62 0 1 1 -123.24 0 61.62 61.62 0 1 1 123.24 0z" color="#000000" fill="url(#radialGradient4808)"/>
        <path transform="matrix(.63934 0 0 .63934 600.11 314.59)" d="m-179.81 166.46a61.62 61.62 0 1 1 -123.24 0 61.62 61.62 0 1 1 123.24 0z" color="#000000" fill="#fff" fill-opacity=".13725" filter="url(#filter3806-0)"/>
       </g>
      </g>
      <g transform="matrix(.81302 0 0 .81302 257.08 117.85)">
       <path d="m331.58 427.14a68.096 68.096 0 1 1 -136.19 0 68.096 68.096 0 1 1 136.19 0z" color="#000000" fill="#ffe8d5" fill-opacity=".057471" fill-rule="evenodd" stroke-width="1.1051"/>
      </g>
      <g transform="matrix(.52582 .2009 -.2009 .52582 224.92 80.796)">
       <path d="m632.24 438.14v-12.833s0.41479-9.255 13.661-9.1076c14.848 0.16531 15.323 7.1592 15.179 7.5898v14.352h-7.1757v-11.04s0-5.3818-7.1757-5.5198-7.3137 5.3818-7.3137 5.3818v11.178z" fill="url(#linearGradient2430)"/>
       <rect x="628.93" y="438.14" width="35.741" height="30.497" ry="1.7939" fill="url(#linearGradient2432)"/>
       <path d="m643.62 464.91 0.0804-11.359s-3.5447-0.48337-3.5447-6.0421 6.5333-5.6393 6.5333-5.6393 6.7041 0.0132 6.7594 5.2365c0.0602 5.7197-3.3835 6.3645-3.3835 6.3645l-0.055 11.381z" fill="#6d3f04" fill-opacity=".24138"/>
      </g>
     </g>
     <g transform="translate(298.8 -2.8725)">
      <g transform="matrix(.81302 0 0 .81302 107.85 103.78)">
       <g transform="matrix(1.2028 0 0 1.2028 -87.129 -87.326)" fill-rule="evenodd">
        <path d="m505.74 442.54a61.62 61.62 0 1 1 -123.24 0 61.62 61.62 0 1 1 123.24 0z" color="#000000" fill="url(#radialGradient4808)"/>
        <path transform="matrix(.63934 0 0 .63934 600.11 314.59)" d="m-179.81 166.46a61.62 61.62 0 1 1 -123.24 0 61.62 61.62 0 1 1 123.24 0z" color="#000000" fill="#fff" fill-opacity=".13725" filter="url(#filter3806-0)"/>
       </g>
      </g>
      <g transform="matrix(.81302 0 0 .81302 257.08 117.85)">
       <path d="m331.58 427.14a68.096 68.096 0 1 1 -136.19 0 68.096 68.096 0 1 1 136.19 0z" color="#000000" fill="#ffe8d5" fill-opacity=".057471" fill-rule="evenodd" stroke-width="1.1051"/>
      </g>
      <g transform="matrix(.52582 .2009 -.2009 .52582 224.92 80.796)">
       <path d="m632.24 438.14v-12.833s0.41479-9.255 13.661-9.1076c14.848 0.16531 15.323 7.1592 15.179 7.5898v14.352h-7.1757v-11.04s0-5.3818-7.1757-5.5198-7.3137 5.3818-7.3137 5.3818v11.178z" fill="url(#linearGradient2430)"/>
       <rect x="628.93" y="438.14" width="35.741" height="30.497" ry="1.7939" fill="url(#linearGradient2432)"/>
       <path d="m643.62 464.91 0.0804-11.359s-3.5447-0.48337-3.5447-6.0421 6.5333-5.6393 6.5333-5.6393 6.7041 0.0132 6.7594 5.2365c0.0602 5.7197-3.3835 6.3645-3.3835 6.3645l-0.055 11.381z" fill="#6d3f04" fill-opacity=".24138"/>
      </g>
     </g>
     <g transform="translate(461.18 -2.8725)">
      <g transform="matrix(.81302 0 0 .81302 107.85 103.78)">
       <g transform="matrix(1.2028 0 0 1.2028 -87.129 -87.326)" fill-rule="evenodd">
        <path d="m505.74 442.54a61.62 61.62 0 1 1 -123.24 0 61.62 61.62 0 1 1 123.24 0z" color="#000000" fill="url(#radialGradient4808)"/>
        <path transform="matrix(.63934 0 0 .63934 600.11 314.59)" d="m-179.81 166.46a61.62 61.62 0 1 1 -123.24 0 61.62 61.62 0 1 1 123.24 0z" color="#000000" fill="#fff" fill-opacity=".13725" filter="url(#filter3806-0)"/>
       </g>
      </g>
      <g transform="matrix(.81302 0 0 .81302 257.08 117.85)">
       <path d="m331.58 427.14a68.096 68.096 0 1 1 -136.19 0 68.096 68.096 0 1 1 136.19 0z" color="#000000" fill="#ffe8d5" fill-opacity=".057471" fill-rule="evenodd" stroke-width="1.1051"/>
      </g>
      <g transform="matrix(.52582 .2009 -.2009 .52582 224.92 80.796)">
       <path d="m632.24 438.14v-12.833s0.41479-9.255 13.661-9.1076c14.848 0.16531 15.323 7.1592 15.179 7.5898v14.352h-7.1757v-11.04s0-5.3818-7.1757-5.5198-7.3137 5.3818-7.3137 5.3818v11.178z" fill="url(#linearGradient2430)"/>
       <rect x="628.93" y="438.14" width="35.741" height="30.497" ry="1.7939" fill="url(#linearGradient2432)"/>
       <path d="m643.62 464.91 0.0804-11.359s-3.5447-0.48337-3.5447-6.0421 6.5333-5.6393 6.5333-5.6393 6.7041 0.0132 6.7594 5.2365c0.0602 5.7197-3.3835 6.3645-3.3835 6.3645l-0.055 11.381z" fill="#6d3f04" fill-opacity=".24138"/>
      </g>
     </g>
    </g>
   </g>
   <g transform="rotate(.22716 -61.618 12576)">
    <g transform="matrix(.042736 0 0 .042736 2.1337 261.14)">
     <g transform="translate(136.42 -2.8725)">
      <g transform="matrix(.81302 0 0 .81302 107.85 103.78)">
       <g transform="matrix(1.2028 0 0 1.2028 -87.129 -87.326)" fill-rule="evenodd">
        <path d="m505.74 442.54a61.62 61.62 0 1 1 -123.24 0 61.62 61.62 0 1 1 123.24 0z" color="#000000" fill="url(#radialGradient4808)"/>
        <path transform="matrix(.63934 0 0 .63934 600.11 314.59)" d="m-179.81 166.46a61.62 61.62 0 1 1 -123.24 0 61.62 61.62 0 1 1 123.24 0z" color="#000000" fill="#fff" fill-opacity=".13725" filter="url(#filter3806-0)"/>
       </g>
      </g>
      <g transform="matrix(.81302 0 0 .81302 257.08 117.85)">
       <path d="m331.58 427.14a68.096 68.096 0 1 1 -136.19 0 68.096 68.096 0 1 1 136.19 0z" color="#000000" fill="#ffe8d5" fill-opacity=".057471" fill-rule="evenodd" stroke-width="1.1051"/>
      </g>
      <g transform="matrix(.52582 .2009 -.2009 .52582 224.92 80.796)">
       <path d="m632.24 438.14v-12.833s0.41479-9.255 13.661-9.1076c14.848 0.16531 15.323 7.1592 15.179 7.5898v14.352h-7.1757v-11.04s0-5.3818-7.1757-5.5198-7.3137 5.3818-7.3137 5.3818v11.178z" fill="url(#linearGradient2430)"/>
       <rect x="628.93" y="438.14" width="35.741" height="30.497" ry="1.7939" fill="url(#linearGradient2432)"/>
       <path d="m643.62 464.91 0.0804-11.359s-3.5447-0.48337-3.5447-6.0421 6.5333-5.6393 6.5333-5.6393 6.7041 0.0132 6.7594 5.2365c0.0602 5.7197-3.3835 6.3645-3.3835 6.3645l-0.055 11.381z" fill="#6d3f04" fill-opacity=".24138"/>
      </g>
     </g>
     <g transform="translate(298.8 -2.8725)">
      <g transform="matrix(.81302 0 0 .81302 107.85 103.78)">
       <g transform="matrix(1.2028 0 0 1.2028 -87.129 -87.326)" fill-rule="evenodd">
        <path d="m505.74 442.54a61.62 61.62 0 1 1 -123.24 0 61.62 61.62 0 1 1 123.24 0z" color="#000000" fill="url(#radialGradient4808)"/>
        <path transform="matrix(.63934 0 0 .63934 600.11 314.59)" d="m-179.81 166.46a61.62 61.62 0 1 1 -123.24 0 61.62 61.62 0 1 1 123.24 0z" color="#000000" fill="#fff" fill-opacity=".13725" filter="url(#filter3806-0)"/>
       </g>
      </g>
      <g transform="matrix(.81302 0 0 .81302 257.08 117.85)">
       <path d="m331.58 427.14a68.096 68.096 0 1 1 -136.19 0 68.096 68.096 0 1 1 136.19 0z" color="#000000" fill="#ffe8d5" fill-opacity=".057471" fill-rule="evenodd" stroke-width="1.1051"/>
      </g>
      <g transform="matrix(.52582 .2009 -.2009 .52582 224.92 80.796)">
       <path d="m632.24 438.14v-12.833s0.41479-9.255 13.661-9.1076c14.848 0.16531 15.323 7.1592 15.179 7.5898v14.352h-7.1757v-11.04s0-5.3818-7.1757-5.5198-7.3137 5.3818-7.3137 5.3818v11.178z" fill="url(#linearGradient2430)"/>
       <rect x="628.93" y="438.14" width="35.741" height="30.497" ry="1.7939" fill="url(#linearGradient2432)"/>
       <path d="m643.62 464.91 0.0804-11.359s-3.5447-0.48337-3.5447-6.0421 6.5333-5.6393 6.5333-5.6393 6.7041 0.0132 6.7594 5.2365c0.0602 5.7197-3.3835 6.3645-3.3835 6.3645l-0.055 11.381z" fill="#6d3f04" fill-opacity=".24138"/>
      </g>
     </g>
     <g transform="translate(461.18 -2.8725)">
      <g transform="matrix(.81302 0 0 .81302 107.85 103.78)">
       <g transform="matrix(1.2028 0 0 1.2028 -87.129 -87.326)" fill-rule="evenodd">
        <path d="m505.74 442.54a61.62 61.62 0 1 1 -123.24 0 61.62 61.62 0 1 1 123.24 0z" color="#000000" fill="url(#radialGradient4808)"/>
        <path transform="matrix(.63934 0 0 .63934 600.11 314.59)" d="m-179.81 166.46a61.62 61.62 0 1 1 -123.24 0 61.62 61.62 0 1 1 123.24 0z" color="#000000" fill="#fff" fill-opacity=".13725" filter="url(#filter3806-0)"/>
       </g>
      </g>
      <g transform="matrix(.81302 0 0 .81302 257.08 117.85)">
       <path d="m331.58 427.14a68.096 68.096 0 1 1 -136.19 0 68.096 68.096 0 1 1 136.19 0z" color="#000000" fill="#ffe8d5" fill-opacity=".057471" fill-rule="evenodd" stroke-width="1.1051"/>
      </g>
      <g transform="matrix(.52582 .2009 -.2009 .52582 224.92 80.796)">
       <path d="m632.24 438.14v-12.833s0.41479-9.255 13.661-9.1076c14.848 0.16531 15.323 7.1592 15.179 7.5898v14.352h-7.1757v-11.04s0-5.3818-7.1757-5.5198-7.3137 5.3818-7.3137 5.3818v11.178z" fill="url(#linearGradient2430)"/>
       <rect x="628.93" y="438.14" width="35.741" height="30.497" ry="1.7939" fill="url(#linearGradient2432)"/>
       <path d="m643.62 464.91 0.0804-11.359s-3.5447-0.48337-3.5447-6.0421 6.5333-5.6393 6.5333-5.6393 6.7041 0.0132 6.7594 5.2365c0.0602 5.7197-3.3835 6.3645-3.3835 6.3645l-0.055 11.381z" fill="#6d3f04" fill-opacity=".24138"/>
      </g>
     </g>
    </g>
   </g>
   <g transform="rotate(.22716 -51.125 17869)">
    <g transform="matrix(.042736 0 0 .042736 2.1337 261.14)">
     <g transform="translate(136.42 -2.8725)">
      <g transform="matrix(.81302 0 0 .81302 107.85 103.78)">
       <g transform="matrix(1.2028 0 0 1.2028 -87.129 -87.326)" fill-rule="evenodd">
        <path d="m505.74 442.54a61.62 61.62 0 1 1 -123.24 0 61.62 61.62 0 1 1 123.24 0z" color="#000000" fill="url(#radialGradient4808)"/>
        <path transform="matrix(.63934 0 0 .63934 600.11 314.59)" d="m-179.81 166.46a61.62 61.62 0 1 1 -123.24 0 61.62 61.62 0 1 1 123.24 0z" color="#000000" fill="#fff" fill-opacity=".13725" filter="url(#filter3806-0)"/>
       </g>
      </g>
      <g transform="matrix(.81302 0 0 .81302 257.08 117.85)">
       <path d="m331.58 427.14a68.096 68.096 0 1 1 -136.19 0 68.096 68.096 0 1 1 136.19 0z" color="#000000" fill="#ffe8d5" fill-opacity=".057471" fill-rule="evenodd" stroke-width="1.1051"/>
      </g>
      <g transform="matrix(.52582 .2009 -.2009 .52582 224.92 80.796)">
       <path d="m632.24 438.14v-12.833s0.41479-9.255 13.661-9.1076c14.848 0.16531 15.323 7.1592 15.179 7.5898v14.352h-7.1757v-11.04s0-5.3818-7.1757-5.5198-7.3137 5.3818-7.3137 5.3818v11.178z" fill="url(#linearGradient2430)"/>
       <rect x="628.93" y="438.14" width="35.741" height="30.497" ry="1.7939" fill="url(#linearGradient2432)"/>
       <path d="m643.62 464.91 0.0804-11.359s-3.5447-0.48337-3.5447-6.0421 6.5333-5.6393 6.5333-5.6393 6.7041 0.0132 6.7594 5.2365c0.0602 5.7197-3.3835 6.3645-3.3835 6.3645l-0.055 11.381z" fill="#6d3f04" fill-opacity=".24138"/>
      </g>
     </g>
     <g transform="translate(298.8 -2.8725)">
      <g transform="matrix(.81302 0 0 .81302 107.85 103.78)">
       <g transform="matrix(1.2028 0 0 1.2028 -87.129 -87.326)" fill-rule="evenodd">
        <path d="m505.74 442.54a61.62 61.62 0 1 1 -123.24 0 61.62 61.62 0 1 1 123.24 0z" color="#000000" fill="url(#radialGradient4808)"/>
        <path transform="matrix(.63934 0 0 .63934 600.11 314.59)" d="m-179.81 166.46a61.62 61.62 0 1 1 -123.24 0 61.62 61.62 0 1 1 123.24 0z" color="#000000" fill="#fff" fill-opacity=".13725" filter="url(#filter3806-0)"/>
       </g>
      </g>
      <g transform="matrix(.81302 0 0 .81302 257.08 117.85)">
       <path d="m331.58 427.14a68.096 68.096 0 1 1 -136.19 0 68.096 68.096 0 1 1 136.19 0z" color="#000000" fill="#ffe8d5" fill-opacity=".057471" fill-rule="evenodd" stroke-width="1.1051"/>
      </g>
      <g transform="matrix(.52582 .2009 -.2009 .52582 224.92 80.796)">
       <path d="m632.24 438.14v-12.833s0.41479-9.255 13.661-9.1076c14.848 0.16531 15.323 7.1592 15.179 7.5898v14.352h-7.1757v-11.04s0-5.3818-7.1757-5.5198-7.3137 5.3818-7.3137 5.3818v11.178z" fill="url(#linearGradient2430)"/>
       <rect x="628.93" y="438.14" width="35.741" height="30.497" ry="1.7939" fill="url(#linearGradient2432)"/>
       <path d="m643.62 464.91 0.0804-11.359s-3.5447-0.48337-3.5447-6.0421 6.5333-5.6393 6.5333-5.6393 6.7041 0.0132 6.7594 5.2365c0.0602 5.7197-3.3835 6.3645-3.3835 6.3645l-0.055 11.381z" fill="#6d3f04" fill-opacity=".24138"/>
      </g>
     </g>
     <g transform="translate(461.18 -2.8725)">
      <g transform="matrix(.81302 0 0 .81302 107.85 103.78)">
       <g transform="matrix(1.2028 0 0 1.2028 -87.129 -87.326)" fill-rule="evenodd">
        <path d="m505.74 442.54a61.62 61.62 0 1 1 -123.24 0 61.62 61.62 0 1 1 123.24 0z" color="#000000" fill="url(#radialGradient4808)"/>
        <path transform="matrix(.63934 0 0 .63934 600.11 314.59)" d="m-179.81 166.46a61.62 61.62 0 1 1 -123.24 0 61.62 61.62 0 1 1 123.24 0z" color="#000000" fill="#fff" fill-opacity=".13725" filter="url(#filter3806-0)"/>
       </g>
      </g>
      <g transform="matrix(.81302 0 0 .81302 257.08 117.85)">
       <path d="m331.58 427.14a68.096 68.096 0 1 1 -136.19 0 68.096 68.096 0 1 1 136.19 0z" color="#000000" fill="#ffe8d5" fill-opacity=".057471" fill-rule="evenodd" stroke-width="1.1051"/>
      </g>
      <g transform="matrix(.52582 .2009 -.2009 .52582 224.92 80.796)">
       <path d="m632.24 438.14v-12.833s0.41479-9.255 13.661-9.1076c14.848 0.16531 15.323 7.1592 15.179 7.5898v14.352h-7.1757v-11.04s0-5.3818-7.1757-5.5198-7.3137 5.3818-7.3137 5.3818v11.178z" fill="url(#linearGradient2430)"/>
       <rect x="628.93" y="438.14" width="35.741" height="30.497" ry="1.7939" fill="url(#linearGradient2432)"/>
       <path d="m643.62 464.91 0.0804-11.359s-3.5447-0.48337-3.5447-6.0421 6.5333-5.6393 6.5333-5.6393 6.7041 0.0132 6.7594 5.2365c0.0602 5.7197-3.3835 6.3645-3.3835 6.3645l-0.055 11.381z" fill="#6d3f04" fill-opacity=".24138"/>
      </g>
     </g>
    </g>
   </g>
   <g transform="rotate(.22716 -40.633 23161)">
    <g transform="matrix(.042736 0 0 .042736 2.1337 261.14)">
     <g transform="translate(136.42 -2.8725)">
      <g transform="matrix(.81302 0 0 .81302 107.85 103.78)">
       <g transform="matrix(1.2028 0 0 1.2028 -87.129 -87.326)" fill-rule="evenodd">
        <path d="m505.74 442.54a61.62 61.62 0 1 1 -123.24 0 61.62 61.62 0 1 1 123.24 0z" color="#000000" fill="url(#radialGradient4808)"/>
        <path transform="matrix(.63934 0 0 .63934 600.11 314.59)" d="m-179.81 166.46a61.62 61.62 0 1 1 -123.24 0 61.62 61.62 0 1 1 123.24 0z" color="#000000" fill="#fff" fill-opacity=".13725" filter="url(#filter3806-0)"/>
       </g>
      </g>
      <g transform="matrix(.81302 0 0 .81302 257.08 117.85)">
       <path d="m331.58 427.14a68.096 68.096 0 1 1 -136.19 0 68.096 68.096 0 1 1 136.19 0z" color="#000000" fill="#ffe8d5" fill-opacity=".057471" fill-rule="evenodd" stroke-width="1.1051"/>
      </g>
      <g transform="matrix(.52582 .2009 -.2009 .52582 224.92 80.796)">
       <path d="m632.24 438.14v-12.833s0.41479-9.255 13.661-9.1076c14.848 0.16531 15.323 7.1592 15.179 7.5898v14.352h-7.1757v-11.04s0-5.3818-7.1757-5.5198-7.3137 5.3818-7.3137 5.3818v11.178z" fill="url(#linearGradient2430)"/>
       <rect x="628.93" y="438.14" width="35.741" height="30.497" ry="1.7939" fill="url(#linearGradient2432)"/>
       <path d="m643.62 464.91 0.0804-11.359s-3.5447-0.48337-3.5447-6.0421 6.5333-5.6393 6.5333-5.6393 6.7041 0.0132 6.7594 5.2365c0.0602 5.7197-3.3835 6.3645-3.3835 6.3645l-0.055 11.381z" fill="#6d3f04" fill-opacity=".24138"/>
      </g>
     </g>
     <g transform="translate(298.8 -2.8725)">
      <g transform="matrix(.81302 0 0 .81302 107.85 103.78)">
       <g transform="matrix(1.2028 0 0 1.2028 -87.129 -87.326)" fill-rule="evenodd">
        <path d="m505.74 442.54a61.62 61.62 0 1 1 -123.24 0 61.62 61.62 0 1 1 123.24 0z" color="#000000" fill="url(#radialGradient4808)"/>
        <path transform="matrix(.63934 0 0 .63934 600.11 314.59)" d="m-179.81 166.46a61.62 61.62 0 1 1 -123.24 0 61.62 61.62 0 1 1 123.24 0z" color="#000000" fill="#fff" fill-opacity=".13725" filter="url(#filter3806-0)"/>
       </g>
      </g>
      <g transform="matrix(.81302 0 0 .81302 257.08 117.85)">
       <path d="m331.58 427.14a68.096 68.096 0 1 1 -136.19 0 68.096 68.096 0 1 1 136.19 0z" color="#000000" fill="#ffe8d5" fill-opacity=".057471" fill-rule="evenodd" stroke-width="1.1051"/>
      </g>
      <g transform="matrix(.52582 .2009 -.2009 .52582 224.92 80.796)">
       <path d="m632.24 438.14v-12.833s0.41479-9.255 13.661-9.1076c14.848 0.16531 15.323 7.1592 15.179 7.5898v14.352h-7.1757v-11.04s0-5.3818-7.1757-5.5198-7.3137 5.3818-7.3137 5.3818v11.178z" fill="url(#linearGradient2430)"/>
       <rect x="628.93" y="438.14" width="35.741" height="30.497" ry="1.7939" fill="url(#linearGradient2432)"/>
       <path d="m643.62 464.91 0.0804-11.359s-3.5447-0.48337-3.5447-6.0421 6.5333-5.6393 6.5333-5.6393 6.7041 0.0132 6.7594 5.2365c0.0602 5.7197-3.3835 6.3645-3.3835 6.3645l-0.055 11.381z" fill="#6d3f04" fill-opacity=".24138"/>
      </g>
     </g>
     <g transform="translate(461.18 -2.8725)">
      <g transform="matrix(.81302 0 0 .81302 107.85 103.78)">
       <g transform="matrix(1.2028 0 0 1.2028 -87.129 -87.326)" fill-rule="evenodd">
        <path d="m505.74 442.54a61.62 61.62 0 1 1 -123.24 0 61.62 61.62 0 1 1 123.24 0z" color="#000000" fill="url(#radialGradient4808)"/>
        <path transform="matrix(.63934 0 0 .63934 600.11 314.59)" d="m-179.81 166.46a61.62 61.62 0 1 1 -123.24 0 61.62 61.62 0 1 1 123.24 0z" color="#000000" fill="#fff" fill-opacity=".13725" filter="url(#filter3806-0)"/>
       </g>
      </g>
      <g transform="matrix(.81302 0 0 .81302 257.08 117.85)">
       <path d="m331.58 427.14a68.096 68.096 0 1 1 -136.19 0 68.096 68.096 0 1 1 136.19 0z" color="#000000" fill="#ffe8d5" fill-opacity=".057471" fill-rule="evenodd" stroke-width="1.1051"/>
      </g>
      <g transform="matrix(.52582 .2009 -.2009 .52582 224.92 80.796)">
       <path d="m632.24 438.14v-12.833s0.41479-9.255 13.661-9.1076c14.848 0.16531 15.323 7.1592 15.179 7.5898v14.352h-7.1757v-11.04s0-5.3818-7.1757-5.5198-7.3137 5.3818-7.3137 5.3818v11.178z" fill="url(#linearGradient2430)"/>
       <rect x="628.93" y="438.14" width="35.741" height="30.497" ry="1.7939" fill="url(#linearGradient2432)"/>
       <path d="m643.62 464.91 0.0804-11.359s-3.5447-0.48337-3.5447-6.0421 6.5333-5.6393 6.5333-5.6393 6.7041 0.0132 6.7594 5.2365c0.0602 5.7197-3.3835 6.3645-3.3835 6.3645l-0.055 11.381z" fill="#6d3f04" fill-opacity=".24138"/>
      </g>
     </g>
    </g>
   </g>
   <g transform="rotate(.22716 -30.141 28454)">
    <g transform="matrix(.042736 0 0 .042736 2.1337 261.14)">
     <g transform="translate(136.42 -2.8725)">
      <g transform="matrix(.81302 0 0 .81302 107.85 103.78)">
       <g transform="matrix(1.2028 0 0 1.2028 -87.129 -87.326)" fill-rule="evenodd">
        <path d="m505.74 442.54a61.62 61.62 0 1 1 -123.24 0 61.62 61.62 0 1 1 123.24 0z" color="#000000" fill="url(#radialGradient4808)"/>
        <path transform="matrix(.63934 0 0 .63934 600.11 314.59)" d="m-179.81 166.46a61.62 61.62 0 1 1 -123.24 0 61.62 61.62 0 1 1 123.24 0z" color="#000000" fill="#fff" fill-opacity=".13725" filter="url(#filter3806-0)"/>
       </g>
      </g>
      <g transform="matrix(.81302 0 0 .81302 257.08 117.85)">
       <path d="m331.58 427.14a68.096 68.096 0 1 1 -136.19 0 68.096 68.096 0 1 1 136.19 0z" color="#000000" fill="#ffe8d5" fill-opacity=".057471" fill-rule="evenodd" stroke-width="1.1051"/>
      </g>
      <g transform="matrix(.52582 .2009 -.2009 .52582 224.92 80.796)">
       <path d="m632.24 438.14v-12.833s0.41479-9.255 13.661-9.1076c14.848 0.16531 15.323 7.1592 15.179 7.5898v14.352h-7.1757v-11.04s0-5.3818-7.1757-5.5198-7.3137 5.3818-7.3137 5.3818v11.178z" fill="url(#linearGradient2430)"/>
       <rect x="628.93" y="438.14" width="35.741" height="30.497" ry="1.7939" fill="url(#linearGradient2432)"/>
       <path d="m643.62 464.91 0.0804-11.359s-3.5447-0.48337-3.5447-6.0421 6.5333-5.6393 6.5333-5.6393 6.7041 0.0132 6.7594 5.2365c0.0602 5.7197-3.3835 6.3645-3.3835 6.3645l-0.055 11.381z" fill="#6d3f04" fill-opacity=".24138"/>
      </g>
     </g>
     <g transform="translate(298.8 -2.8725)">
      <g transform="matrix(.81302 0 0 .81302 107.85 103.78)">
       <g transform="matrix(1.2028 0 0 1.2028 -87.129 -87.326)" fill-rule="evenodd">
        <path d="m505.74 442.54a61.62 61.62 0 1 1 -123.24 0 61.62 61.62 0 1 1 123.24 0z" color="#000000" fill="url(#radialGradient4808)"/>
        <path transform="matrix(.63934 0 0 .63934 600.11 314.59)" d="m-179.81 166.46a61.62 61.62 0 1 1 -123.24 0 61.62 61.62 0 1 1 123.24 0z" color="#000000" fill="#fff" fill-opacity=".13725" filter="url(#filter3806-0)"/>
       </g>
      </g>
      <g transform="matrix(.81302 0 0 .81302 257.08 117.85)">
       <path d="m331.58 427.14a68.096 68.096 0 1 1 -136.19 0 68.096 68.096 0 1 1 136.19 0z" color="#000000" fill="#ffe8d5" fill-opacity=".057471" fill-rule="evenodd" stroke-width="1.1051"/>
      </g>
      <g transform="matrix(.52582 .2009 -.2009 .52582 224.92 80.796)">
       <path d="m632.24 438.14v-12.833s0.41479-9.255 13.661-9.1076c14.848 0.16531 15.323 7.1592 15.179 7.5898v14.352h-7.1757v-11.04s0-5.3818-7.1757-5.5198-7.3137 5.3818-7.3137 5.3818v11.178z" fill="url(#linearGradient2430)"/>
       <rect x="628.93" y="438.14" width="35.741" height="30.497" ry="1.7939" fill="url(#linearGradient2432)"/>
       <path d="m643.62 464.91 0.0804-11.359s-3.5447-0.48337-3.5447-6.0421 6.5333-5.6393 6.5333-5.6393 6.7041 0.0132 6.7594 5.2365c0.0602 5.7197-3.3835 6.3645-3.3835 6.3645l-0.055 11.381z" fill="#6d3f04" fill-opacity=".24138"/>
      </g>
     </g>
     <g transform="translate(461.18 -2.8725)">
      <g transform="matrix(.81302 0 0 .81302 107.85 103.78)">
       <g transform="matrix(1.2028 0 0 1.2028 -87.129 -87.326)" fill-rule="evenodd">
        <path d="m505.74 442.54a61.62 61.62 0 1 1 -123.24 0 61.62 61.62 0 1 1 123.24 0z" color="#000000" fill="url(#radialGradient4808)"/>
        <path transform="matrix(.63934 0 0 .63934 600.11 314.59)" d="m-179.81 166.46a61.62 61.62 0 1 1 -123.24 0 61.62 61.62 0 1 1 123.24 0z" color="#000000" fill="#fff" fill-opacity=".13725" filter="url(#filter3806-0)"/>
       </g>
      </g>
      <g transform="matrix(.81302 0 0 .81302 257.08 117.85)">
       <path d="m331.58 427.14a68.096 68.096 0 1 1 -136.19 0 68.096 68.096 0 1 1 136.19 0z" color="#000000" fill="#ffe8d5" fill-opacity=".057471" fill-rule="evenodd" stroke-width="1.1051"/>
      </g>
      <g transform="matrix(.52582 .2009 -.2009 .52582 224.92 80.796)">
       <path d="m632.24 438.14v-12.833s0.41479-9.255 13.661-9.1076c14.848 0.16531 15.323 7.1592 15.179 7.5898v14.352h-7.1757v-11.04s0-5.3818-7.1757-5.5198-7.3137 5.3818-7.3137 5.3818v11.178z" fill="url(#linearGradient2430)"/>
       <rect x="628.93" y="438.14" width="35.741" height="30.497" ry="1.7939" fill="url(#linearGradient2432)"/>
       <path d="m643.62 464.91 0.0804-11.359s-3.5447-0.48337-3.5447-6.0421 6.5333-5.6393 6.5333-5.6393 6.7041 0.0132 6.7594 5.2365c0.0602 5.7197-3.3835 6.3645-3.3835 6.3645l-0.055 11.381z" fill="#6d3f04" fill-opacity=".24138"/>
      </g>
     </g>
    </g>
   </g>
   <g transform="rotate(.22716 -19.649 33747)">
    <g transform="matrix(.042736 0 0 .042736 2.1337 261.14)">
     <g transform="translate(136.42 -2.8725)">
      <g transform="matrix(.81302 0 0 .81302 107.85 103.78)">
       <g transform="matrix(1.2028 0 0 1.2028 -87.129 -87.326)" fill-rule="evenodd">
        <path d="m505.74 442.54a61.62 61.62 0 1 1 -123.24 0 61.62 61.62 0 1 1 123.24 0z" color="#000000" fill="url(#radialGradient4808)"/>
        <path transform="matrix(.63934 0 0 .63934 600.11 314.59)" d="m-179.81 166.46a61.62 61.62 0 1 1 -123.24 0 61.62 61.62 0 1 1 123.24 0z" color="#000000" fill="#fff" fill-opacity=".13725" filter="url(#filter3806-0)"/>
       </g>
      </g>
      <g transform="matrix(.81302 0 0 .81302 257.08 117.85)">
       <path d="m331.58 427.14a68.096 68.096 0 1 1 -136.19 0 68.096 68.096 0 1 1 136.19 0z" color="#000000" fill="#ffe8d5" fill-opacity=".057471" fill-rule="evenodd" stroke-width="1.1051"/>
      </g>
      <g transform="matrix(.52582 .2009 -.2009 .52582 224.92 80.796)">
       <path d="m632.24 438.14v-12.833s0.41479-9.255 13.661-9.1076c14.848 0.16531 15.323 7.1592 15.179 7.5898v14.352h-7.1757v-11.04s0-5.3818-7.1757-5.5198-7.3137 5.3818-7.3137 5.3818v11.178z" fill="url(#linearGradient2430)"/>
       <rect x="628.93" y="438.14" width="35.741" height="30.497" ry="1.7939" fill="url(#linearGradient2432)"/>
       <path d="m643.62 464.91 0.0804-11.359s-3.5447-0.48337-3.5447-6.0421 6.5333-5.6393 6.5333-5.6393 6.7041 0.0132 6.7594 5.2365c0.0602 5.7197-3.3835 6.3645-3.3835 6.3645l-0.055 11.381z" fill="#6d3f04" fill-opacity=".24138"/>
      </g>
     </g>
     <g transform="translate(298.8 -2.8725)">
      <g transform="matrix(.81302 0 0 .81302 107.85 103.78)">
       <g transform="matrix(1.2028 0 0 1.2028 -87.129 -87.326)" fill-rule="evenodd">
        <path d="m505.74 442.54a61.62 61.62 0 1 1 -123.24 0 61.62 61.62 0 1 1 123.24 0z" color="#000000" fill="url(#radialGradient4808)"/>
        <path transform="matrix(.63934 0 0 .63934 600.11 314.59)" d="m-179.81 166.46a61.62 61.62 0 1 1 -123.24 0 61.62 61.62 0 1 1 123.24 0z" color="#000000" fill="#fff" fill-opacity=".13725" filter="url(#filter3806-0)"/>
       </g>
      </g>
      <g transform="matrix(.81302 0 0 .81302 257.08 117.85)">
       <path d="m331.58 427.14a68.096 68.096 0 1 1 -136.19 0 68.096 68.096 0 1 1 136.19 0z" color="#000000" fill="#ffe8d5" fill-opacity=".057471" fill-rule="evenodd" stroke-width="1.1051"/>
      </g>
      <g transform="matrix(.52582 .2009 -.2009 .52582 224.92 80.796)">
       <path d="m632.24 438.14v-12.833s0.41479-9.255 13.661-9.1076c14.848 0.16531 15.323 7.1592 15.179 7.5898v14.352h-7.1757v-11.04s0-5.3818-7.1757-5.5198-7.3137 5.3818-7.3137 5.3818v11.178z" fill="url(#linearGradient2430)"/>
       <rect x="628.93" y="438.14" width="35.741" height="30.497" ry="1.7939" fill="url(#linearGradient2432)"/>
       <path d="m643.62 464.91 0.0804-11.359s-3.5447-0.48337-3.5447-6.0421 6.5333-5.6393 6.5333-5.6393 6.7041 0.0132 6.7594 5.2365c0.0602 5.7197-3.3835 6.3645-3.3835 6.3645l-0.055 11.381z" fill="#6d3f04" fill-opacity=".24138"/>
      </g>
     </g>
     <g transform="translate(461.18 -2.8725)">
      <g transform="matrix(.81302 0 0 .81302 107.85 103.78)">
       <g transform="matrix(1.2028 0 0 1.2028 -87.129 -87.326)" fill-rule="evenodd">
        <path d="m505.74 442.54a61.62 61.62 0 1 1 -123.24 0 61.62 61.62 0 1 1 123.24 0z" color="#000000" fill="url(#radialGradient4808)"/>
        <path transform="matrix(.63934 0 0 .63934 600.11 314.59)" d="m-179.81 166.46a61.62 61.62 0 1 1 -123.24 0 61.62 61.62 0 1 1 123.24 0z" color="#000000" fill="#fff" fill-opacity=".13725" filter="url(#filter3806-0)"/>
       </g>
      </g>
      <g transform="matrix(.81302 0 0 .81302 257.08 117.85)">
       <path d="m331.58 427.14a68.096 68.096 0 1 1 -136.19 0 68.096 68.096 0 1 1 136.19 0z" color="#000000" fill="#ffe8d5" fill-opacity=".057471" fill-rule="evenodd" stroke-width="1.1051"/>
      </g>
      <g transform="matrix(.52582 .2009 -.2009 .52582 224.92 80.796)">
       <path d="m632.24 438.14v-12.833s0.41479-9.255 13.661-9.1076c14.848 0.16531 15.323 7.1592 15.179 7.5898v14.352h-7.1757v-11.04s0-5.3818-7.1757-5.5198-7.3137 5.3818-7.3137 5.3818v11.178z" fill="url(#linearGradient2430)"/>
       <rect x="628.93" y="438.14" width="35.741" height="30.497" ry="1.7939" fill="url(#linearGradient2432)"/>
       <path d="m643.62 464.91 0.0804-11.359s-3.5447-0.48337-3.5447-6.0421 6.5333-5.6393 6.5333-5.6393 6.7041 0.0132 6.7594 5.2365c0.0602 5.7197-3.3835 6.3645-3.3835 6.3645l-0.055 11.381z" fill="#6d3f04" fill-opacity=".24138"/>
      </g>
     </g>
    </g>
   </g>
   <g transform="rotate(.22716 -60.219 39039)">
    <g transform="matrix(.042736 0 0 .042736 2.1337 261.14)">
     <g transform="translate(136.42 -2.8725)">
      <g transform="matrix(.81302 0 0 .81302 107.85 103.78)">
       <g transform="matrix(1.2028 0 0 1.2028 -87.129 -87.326)" fill-rule="evenodd">
        <path d="m505.74 442.54a61.62 61.62 0 1 1 -123.24 0 61.62 61.62 0 1 1 123.24 0z" color="#000000" fill="url(#radialGradient4808)"/>
        <path transform="matrix(.63934 0 0 .63934 600.11 314.59)" d="m-179.81 166.46a61.62 61.62 0 1 1 -123.24 0 61.62 61.62 0 1 1 123.24 0z" color="#000000" fill="#fff" fill-opacity=".13725" filter="url(#filter3806-0)"/>
       </g>
      </g>
      <g transform="matrix(.81302 0 0 .81302 257.08 117.85)">
       <path d="m331.58 427.14a68.096 68.096 0 1 1 -136.19 0 68.096 68.096 0 1 1 136.19 0z" color="#000000" fill="#ffe8d5" fill-opacity=".057471" fill-rule="evenodd" stroke-width="1.1051"/>
      </g>
      <g transform="matrix(.52582 .2009 -.2009 .52582 224.92 80.796)">
       <path d="m632.24 438.14v-12.833s0.41479-9.255 13.661-9.1076c14.848 0.16531 15.323 7.1592 15.179 7.5898v14.352h-7.1757v-11.04s0-5.3818-7.1757-5.5198-7.3137 5.3818-7.3137 5.3818v11.178z" fill="url(#linearGradient2430)"/>
       <rect x="628.93" y="438.14" width="35.741" height="30.497" ry="1.7939" fill="url(#linearGradient2432)"/>
       <path d="m643.62 464.91 0.0804-11.359s-3.5447-0.48337-3.5447-6.0421 6.5333-5.6393 6.5333-5.6393 6.7041 0.0132 6.7594 5.2365c0.0602 5.7197-3.3835 6.3645-3.3835 6.3645l-0.055 11.381z" fill="#6d3f04" fill-opacity=".24138"/>
      </g>
     </g>
     <g transform="translate(298.8 -2.8725)">
      <g transform="matrix(.81302 0 0 .81302 107.85 103.78)">
       <g transform="matrix(1.2028 0 0 1.2028 -87.129 -87.326)" fill-rule="evenodd">
        <path d="m505.74 442.54a61.62 61.62 0 1 1 -123.24 0 61.62 61.62 0 1 1 123.24 0z" color="#000000" fill="url(#radialGradient4808)"/>
        <path transform="matrix(.63934 0 0 .63934 600.11 314.59)" d="m-179.81 166.46a61.62 61.62 0 1 1 -123.24 0 61.62 61.62 0 1 1 123.24 0z" color="#000000" fill="#fff" fill-opacity=".13725" filter="url(#filter3806-0)"/>
       </g>
      </g>
      <g transform="matrix(.81302 0 0 .81302 257.08 117.85)">
       <path d="m331.58 427.14a68.096 68.096 0 1 1 -136.19 0 68.096 68.096 0 1 1 136.19 0z" color="#000000" fill="#ffe8d5" fill-opacity=".057471" fill-rule="evenodd" stroke-width="1.1051"/>
      </g>
      <g transform="matrix(.52582 .2009 -.2009 .52582 224.92 80.796)">
       <path d="m632.24 438.14v-12.833s0.41479-9.255 13.661-9.1076c14.848 0.16531 15.323 7.1592 15.179 7.5898v14.352h-7.1757v-11.04s0-5.3818-7.1757-5.5198-7.3137 5.3818-7.3137 5.3818v11.178z" fill="url(#linearGradient2430)"/>
       <rect x="628.93" y="438.14" width="35.741" height="30.497" ry="1.7939" fill="url(#linearGradient2432)"/>
       <path d="m643.62 464.91 0.0804-11.359s-3.5447-0.48337-3.5447-6.0421 6.5333-5.6393 6.5333-5.6393 6.7041 0.0132 6.7594 5.2365c0.0602 5.7197-3.3835 6.3645-3.3835 6.3645l-0.055 11.381z" fill="#6d3f04" fill-opacity=".24138"/>
      </g>
     </g>
     <g transform="translate(461.18 -2.8725)">
      <g transform="matrix(.81302 0 0 .81302 107.85 103.78)">
       <g transform="matrix(1.2028 0 0 1.2028 -87.129 -87.326)" fill-rule="evenodd">
        <path d="m505.74 442.54a61.62 61.62 0 1 1 -123.24 0 61.62 61.62 0 1 1 123.24 0z" color="#000000" fill="url(#radialGradient4808)"/>
        <path transform="matrix(.63934 0 0 .63934 600.11 314.59)" d="m-179.81 166.46a61.62 61.62 0 1 1 -123.24 0 61.62 61.62 0 1 1 123.24 0z" color="#000000" fill="#fff" fill-opacity=".13725" filter="url(#filter3806-0)"/>
       </g>
      </g>
      <g transform="matrix(.81302 0 0 .81302 257.08 117.85)">
       <path d="m331.58 427.14a68.096 68.096 0 1 1 -136.19 0 68.096 68.096 0 1 1 136.19 0z" color="#000000" fill="#ffe8d5" fill-opacity=".057471" fill-rule="evenodd" stroke-width="1.1051"/>
      </g>
      <g transform="matrix(.52582 .2009 -.2009 .52582 224.92 80.796)">
       <path d="m632.24 438.14v-12.833s0.41479-9.255 13.661-9.1076c14.848 0.16531 15.323 7.1592 15.179 7.5898v14.352h-7.1757v-11.04s0-5.3818-7.1757-5.5198-7.3137 5.3818-7.3137 5.3818v11.178z" fill="url(#linearGradient2430)"/>
       <rect x="628.93" y="438.14" width="35.741" height="30.497" ry="1.7939" fill="url(#linearGradient2432)"/>
       <path d="m643.62 464.91 0.0804-11.359s-3.5447-0.48337-3.5447-6.0421 6.5333-5.6393 6.5333-5.6393 6.7041 0.0132 6.7594 5.2365c0.0602 5.7197-3.3835 6.3645-3.3835 6.3645l-0.055 11.381z" fill="#6d3f04" fill-opacity=".24138"/>
      </g>
     </g>
    </g>
   </g>
   <g transform="rotate(.22716 -49.727 44332)">
    <g transform="matrix(.042736 0 0 .042736 2.1337 261.14)">
     <g transform="translate(136.42 -2.8725)">
      <g transform="matrix(.81302 0 0 .81302 107.85 103.78)">
       <g transform="matrix(1.2028 0 0 1.2028 -87.129 -87.326)" fill-rule="evenodd">
        <path d="m505.74 442.54a61.62 61.62 0 1 1 -123.24 0 61.62 61.62 0 1 1 123.24 0z" color="#000000" fill="url(#radialGradient4808)"/>
        <path transform="matrix(.63934 0 0 .63934 600.11 314.59)" d="m-179.81 166.46a61.62 61.62 0 1 1 -123.24 0 61.62 61.62 0 1 1 123.24 0z" color="#000000" fill="#fff" fill-opacity=".13725" filter="url(#filter3806-0)"/>
       </g>
      </g>
      <g transform="matrix(.81302 0 0 .81302 257.08 117.85)">
       <path d="m331.58 427.14a68.096 68.096 0 1 1 -136.19 0 68.096 68.096 0 1 1 136.19 0z" color="#000000" fill="#ffe8d5" fill-opacity=".057471" fill-rule="evenodd" stroke-width="1.1051"/>
      </g>
      <g transform="matrix(.52582 .2009 -.2009 .52582 224.92 80.796)">
       <path d="m632.24 438.14v-12.833s0.41479-9.255 13.661-9.1076c14.848 0.16531 15.323 7.1592 15.179 7.5898v14.352h-7.1757v-11.04s0-5.3818-7.1757-5.5198-7.3137 5.3818-7.3137 5.3818v11.178z" fill="url(#linearGradient2430)"/>
       <rect x="628.93" y="438.14" width="35.741" height="30.497" ry="1.7939" fill="url(#linearGradient2432)"/>
       <path d="m643.62 464.91 0.0804-11.359s-3.5447-0.48337-3.5447-6.0421 6.5333-5.6393 6.5333-5.6393 6.7041 0.0132 6.7594 5.2365c0.0602 5.7197-3.3835 6.3645-3.3835 6.3645l-0.055 11.381z" fill="#6d3f04" fill-opacity=".24138"/>
      </g>
     </g>
     <g transform="translate(298.8 -2.8725)">
      <g transform="matrix(.81302 0 0 .81302 107.85 103.78)">
       <g transform="matrix(1.2028 0 0 1.2028 -87.129 -87.326)" fill-rule="evenodd">
        <path d="m505.74 442.54a61.62 61.62 0 1 1 -123.24 0 61.62 61.62 0 1 1 123.24 0z" color="#000000" fill="url(#radialGradient4808)"/>
        <path transform="matrix(.63934 0 0 .63934 600.11 314.59)" d="m-179.81 166.46a61.62 61.62 0 1 1 -123.24 0 61.62 61.62 0 1 1 123.24 0z" color="#000000" fill="#fff" fill-opacity=".13725" filter="url(#filter3806-0)"/>
       </g>
      </g>
      <g transform="matrix(.81302 0 0 .81302 257.08 117.85)">
       <path d="m331.58 427.14a68.096 68.096 0 1 1 -136.19 0 68.096 68.096 0 1 1 136.19 0z" color="#000000" fill="#ffe8d5" fill-opacity=".057471" fill-rule="evenodd" stroke-width="1.1051"/>
      </g>
      <g transform="matrix(.52582 .2009 -.2009 .52582 224.92 80.796)">
       <path d="m632.24 438.14v-12.833s0.41479-9.255 13.661-9.1076c14.848 0.16531 15.323 7.1592 15.179 7.5898v14.352h-7.1757v-11.04s0-5.3818-7.1757-5.5198-7.3137 5.3818-7.3137 5.3818v11.178z" fill="url(#linearGradient2430)"/>
       <rect x="628.93" y="438.14" width="35.741" height="30.497" ry="1.7939" fill="url(#linearGradient2432)"/>
       <path d="m643.62 464.91 0.0804-11.359s-3.5447-0.48337-3.5447-6.0421 6.5333-5.6393 6.5333-5.6393 6.7041 0.0132 6.7594 5.2365c0.0602 5.7197-3.3835 6.3645-3.3835 6.3645l-0.055 11.381z" fill="#6d3f04" fill-opacity=".24138"/>
      </g>
     </g>
     <g transform="translate(461.18 -2.8725)">
      <g transform="matrix(.81302 0 0 .81302 107.85 103.78)">
       <g transform="matrix(1.2028 0 0 1.2028 -87.129 -87.326)" fill-rule="evenodd">
        <path d="m505.74 442.54a61.62 61.62 0 1 1 -123.24 0 61.62 61.62 0 1 1 123.24 0z" color="#000000" fill="url(#radialGradient4808)"/>
        <path transform="matrix(.63934 0 0 .63934 600.11 314.59)" d="m-179.81 166.46a61.62 61.62 0 1 1 -123.24 0 61.62 61.62 0 1 1 123.24 0z" color="#000000" fill="#fff" fill-opacity=".13725" filter="url(#filter3806-0)"/>
       </g>
      </g>
      <g transform="matrix(.81302 0 0 .81302 257.08 117.85)">
       <path d="m331.58 427.14a68.096 68.096 0 1 1 -136.19 0 68.096 68.096 0 1 1 136.19 0z" color="#000000" fill="#ffe8d5" fill-opacity=".057471" fill-rule="evenodd" stroke-width="1.1051"/>
      </g>
      <g transform="matrix(.52582 .2009 -.2009 .52582 224.92 80.796)">
       <path d="m632.24 438.14v-12.833s0.41479-9.255 13.661-9.1076c14.848 0.16531 15.323 7.1592 15.179 7.5898v14.352h-7.1757v-11.04s0-5.3818-7.1757-5.5198-7.3137 5.3818-7.3137 5.3818v11.178z" fill="url(#linearGradient2430)"/>
       <rect x="628.93" y="438.14" width="35.741" height="30.497" ry="1.7939" fill="url(#linearGradient2432)"/>
       <path d="m643.62 464.91 0.0804-11.359s-3.5447-0.48337-3.5447-6.0421 6.5333-5.6393 6.5333-5.6393 6.7041 0.0132 6.7594 5.2365c0.0602 5.7197-3.3835 6.3645-3.3835 6.3645l-0.055 11.381z" fill="#6d3f04" fill-opacity=".24138"/>
      </g>
     </g>
    </g>
   </g>
   <g transform="rotate(.22716 -39.235 49625)">
    <g transform="matrix(.042736 0 0 .042736 2.1337 261.14)">
     <g transform="translate(136.42 -2.8725)">
      <g transform="matrix(.81302 0 0 .81302 107.85 103.78)">
       <g transform="matrix(1.2028 0 0 1.2028 -87.129 -87.326)" fill-rule="evenodd">
        <path d="m505.74 442.54a61.62 61.62 0 1 1 -123.24 0 61.62 61.62 0 1 1 123.24 0z" color="#000000" fill="url(#radialGradient4808)"/>
        <path transform="matrix(.63934 0 0 .63934 600.11 314.59)" d="m-179.81 166.46a61.62 61.62 0 1 1 -123.24 0 61.62 61.62 0 1 1 123.24 0z" color="#000000" fill="#fff" fill-opacity=".13725" filter="url(#filter3806-0)"/>
       </g>
      </g>
      <g transform="matrix(.81302 0 0 .81302 257.08 117.85)">
       <path d="m331.58 427.14a68.096 68.096 0 1 1 -136.19 0 68.096 68.096 0 1 1 136.19 0z" color="#000000" fill="#ffe8d5" fill-opacity=".057471" fill-rule="evenodd" stroke-width="1.1051"/>
      </g>
      <g transform="matrix(.52582 .2009 -.2009 .52582 224.92 80.796)">
       <path d="m632.24 438.14v-12.833s0.41479-9.255 13.661-9.1076c14.848 0.16531 15.323 7.1592 15.179 7.5898v14.352h-7.1757v-11.04s0-5.3818-7.1757-5.5198-7.3137 5.3818-7.3137 5.3818v11.178z" fill="url(#linearGradient2430)"/>
       <rect x="628.93" y="438.14" width="35.741" height="30.497" ry="1.7939" fill="url(#linearGradient2432)"/>
       <path d="m643.62 464.91 0.0804-11.359s-3.5447-0.48337-3.5447-6.0421 6.5333-5.6393 6.5333-5.6393 6.7041 0.0132 6.7594 5.2365c0.0602 5.7197-3.3835 6.3645-3.3835 6.3645l-0.055 11.381z" fill="#6d3f04" fill-opacity=".24138"/>
      </g>
     </g>
     <g transform="translate(298.8 -2.8725)">
      <g transform="matrix(.81302 0 0 .81302 107.85 103.78)">
       <g transform="matrix(1.2028 0 0 1.2028 -87.129 -87.326)" fill-rule="evenodd">
        <path d="m505.74 442.54a61.62 61.62 0 1 1 -123.24 0 61.62 61.62 0 1 1 123.24 0z" color="#000000" fill="url(#radialGradient4808)"/>
        <path transform="matrix(.63934 0 0 .63934 600.11 314.59)" d="m-179.81 166.46a61.62 61.62 0 1 1 -123.24 0 61.62 61.62 0 1 1 123.24 0z" color="#000000" fill="#fff" fill-opacity=".13725" filter="url(#filter3806-0)"/>
       </g>
      </g>
      <g transform="matrix(.81302 0 0 .81302 257.08 117.85)">
       <path d="m331.58 427.14a68.096 68.096 0 1 1 -136.19 0 68.096 68.096 0 1 1 136.19 0z" color="#000000" fill="#ffe8d5" fill-opacity=".057471" fill-rule="evenodd" stroke-width="1.1051"/>
      </g>
      <g transform="matrix(.52582 .2009 -.2009 .52582 224.92 80.796)">
       <path d="m632.24 438.14v-12.833s0.41479-9.255 13.661-9.1076c14.848 0.16531 15.323 7.1592 15.179 7.5898v14.352h-7.1757v-11.04s0-5.3818-7.1757-5.5198-7.3137 5.3818-7.3137 5.3818v11.178z" fill="url(#linearGradient2430)"/>
       <rect x="628.93" y="438.14" width="35.741" height="30.497" ry="1.7939" fill="url(#linearGradient2432)"/>
       <path d="m643.62 464.91 0.0804-11.359s-3.5447-0.48337-3.5447-6.0421 6.5333-5.6393 6.5333-5.6393 6.7041 0.0132 6.7594 5.2365c0.0602 5.7197-3.3835 6.3645-3.3835 6.3645l-0.055 11.381z" fill="#6d3f04" fill-opacity=".24138"/>
      </g>
     </g>
     <g transform="translate(461.18 -2.8725)">
      <g transform="matrix(.81302 0 0 .81302 107.85 103.78)">
       <g transform="matrix(1.2028 0 0 1.2028 -87.129 -87.326)" fill-rule="evenodd">
        <path d="m505.74 442.54a61.62 61.62 0 1 1 -123.24 0 61.62 61.62 0 1 1 123.24 0z" color="#000000" fill="url(#radialGradient4808)"/>
        <path transform="matrix(.63934 0 0 .63934 600.11 314.59)" d="m-179.81 166.46a61.62 61.62 0 1 1 -123.24 0 61.62 61.62 0 1 1 123.24 0z" color="#000000" fill="#fff" fill-opacity=".13725" filter="url(#filter3806-0)"/>
       </g>
      </g>
      <g transform="matrix(.81302 0 0 .81302 257.08 117.85)">
       <path d="m331.58 427.14a68.096 68.096 0 1 1 -136.19 0 68.096 68.096 0 1 1 136.19 0z" color="#000000" fill="#ffe8d5" fill-opacity=".057471" fill-rule="evenodd" stroke-width="1.1051"/>
      </g>
      <g transform="matrix(.52582 .2009 -.2009 .52582 224.92 80.796)">
       <path d="m632.24 438.14v-12.833s0.41479-9.255 13.661-9.1076c14.848 0.16531 15.323 7.1592 15.179 7.5898v14.352h-7.1757v-11.04s0-5.3818-7.1757-5.5198-7.3137 5.3818-7.3137 5.3818v11.178z" fill="url(#linearGradient2430)"/>
       <rect x="628.93" y="438.14" width="35.741" height="30.497" ry="1.7939" fill="url(#linearGradient2432)"/>
       <path d="m643.62 464.91 0.0804-11.359s-3.5447-0.48337-3.5447-6.0421 6.5333-5.6393 6.5333-5.6393 6.7041 0.0132 6.7594 5.2365c0.0602 5.7197-3.3835 6.3645-3.3835 6.3645l-0.055 11.381z" fill="#6d3f04" fill-opacity=".24138"/>
      </g>
     </g>
    </g>
   </g>
   <g transform="rotate(.22716 -28.743 54918)">
    <g transform="matrix(.042736 0 0 .042736 2.1337 261.14)">
     <g transform="translate(136.42 -2.8725)">
      <g transform="matrix(.81302 0 0 .81302 107.85 103.78)">
       <g transform="matrix(1.2028 0 0 1.2028 -87.129 -87.326)" fill-rule="evenodd">
        <path d="m505.74 442.54a61.62 61.62 0 1 1 -123.24 0 61.62 61.62 0 1 1 123.24 0z" color="#000000" fill="url(#radialGradient4808)"/>
        <path transform="matrix(.63934 0 0 .63934 600.11 314.59)" d="m-179.81 166.46a61.62 61.62 0 1 1 -123.24 0 61.62 61.62 0 1 1 123.24 0z" color="#000000" fill="#fff" fill-opacity=".13725" filter="url(#filter3806-0)"/>
       </g>
      </g>
      <g transform="matrix(.81302 0 0 .81302 257.08 117.85)">
       <path d="m331.58 427.14a68.096 68.096 0 1 1 -136.19 0 68.096 68.096 0 1 1 136.19 0z" color="#000000" fill="#ffe8d5" fill-opacity=".057471" fill-rule="evenodd" stroke-width="1.1051"/>
      </g>
      <g transform="matrix(.52582 .2009 -.2009 .52582 224.92 80.796)">
       <path d="m632.24 438.14v-12.833s0.41479-9.255 13.661-9.1076c14.848 0.16531 15.323 7.1592 15.179 7.5898v14.352h-7.1757v-11.04s0-5.3818-7.1757-5.5198-7.3137 5.3818-7.3137 5.3818v11.178z" fill="url(#linearGradient2430)"/>
       <rect x="628.93" y="438.14" width="35.741" height="30.497" ry="1.7939" fill="url(#linearGradient2432)"/>
       <path d="m643.62 464.91 0.0804-11.359s-3.5447-0.48337-3.5447-6.0421 6.5333-5.6393 6.5333-5.6393 6.7041 0.0132 6.7594 5.2365c0.0602 5.7197-3.3835 6.3645-3.3835 6.3645l-0.055 11.381z" fill="#6d3f04" fill-opacity=".24138"/>
      </g>
     </g>
     <g transform="translate(298.8 -2.8725)">
      <g transform="matrix(.81302 0 0 .81302 107.85 103.78)">
       <g transform="matrix(1.2028 0 0 1.2028 -87.129 -87.326)" fill-rule="evenodd">
        <path d="m505.74 442.54a61.62 61.62 0 1 1 -123.24 0 61.62 61.62 0 1 1 123.24 0z" color="#000000" fill="url(#radialGradient4808)"/>
        <path transform="matrix(.63934 0 0 .63934 600.11 314.59)" d="m-179.81 166.46a61.62 61.62 0 1 1 -123.24 0 61.62 61.62 0 1 1 123.24 0z" color="#000000" fill="#fff" fill-opacity=".13725" filter="url(#filter3806-0)"/>
       </g>
      </g>
      <g transform="matrix(.81302 0 0 .81302 257.08 117.85)">
       <path d="m331.58 427.14a68.096 68.096 0 1 1 -136.19 0 68.096 68.096 0 1 1 136.19 0z" color="#000000" fill="#ffe8d5" fill-opacity=".057471" fill-rule="evenodd" stroke-width="1.1051"/>
      </g>
      <g transform="matrix(.52582 .2009 -.2009 .52582 224.92 80.796)">
       <path d="m632.24 438.14v-12.833s0.41479-9.255 13.661-9.1076c14.848 0.16531 15.323 7.1592 15.179 7.5898v14.352h-7.1757v-11.04s0-5.3818-7.1757-5.5198-7.3137 5.3818-7.3137 5.3818v11.178z" fill="url(#linearGradient2430)"/>
       <rect x="628.93" y="438.14" width="35.741" height="30.497" ry="1.7939" fill="url(#linearGradient2432)"/>
       <path d="m643.62 464.91 0.0804-11.359s-3.5447-0.48337-3.5447-6.0421 6.5333-5.6393 6.5333-5.6393 6.7041 0.0132 6.7594 5.2365c0.0602 5.7197-3.3835 6.3645-3.3835 6.3645l-0.055 11.381z" fill="#6d3f04" fill-opacity=".24138"/>
      </g>
     </g>
     <g transform="translate(461.18 -2.8725)">
      <g transform="matrix(.81302 0 0 .81302 107.85 103.78)">
       <g transform="matrix(1.2028 0 0 1.2028 -87.129 -87.326)" fill-rule="evenodd">
        <path d="m505.74 442.54a61.62 61.62 0 1 1 -123.24 0 61.62 61.62 0 1 1 123.24 0z" color="#000000" fill="url(#radialGradient4808)"/>
        <path transform="matrix(.63934 0 0 .63934 600.11 314.59)" d="m-179.81 166.46a61.62 61.62 0 1 1 -123.24 0 61.62 61.62 0 1 1 123.24 0z" color="#000000" fill="#fff" fill-opacity=".13725" filter="url(#filter3806-0)"/>
       </g>
      </g>
      <g transform="matrix(.81302 0 0 .81302 257.08 117.85)">
       <path d="m331.58 427.14a68.096 68.096 0 1 1 -136.19 0 68.096 68.096 0 1 1 136.19 0z" color="#000000" fill="#ffe8d5" fill-opacity=".057471" fill-rule="evenodd" stroke-width="1.1051"/>
      </g>
      <g transform="matrix(.52582 .2009 -.2009 .52582 224.92 80.796)">
       <path d="m632.24 438.14v-12.833s0.41479-9.255 13.661-9.1076c14.848 0.16531 15.323 7.1592 15.179 7.5898v14.352h-7.1757v-11.04s0-5.3818-7.1757-5.5198-7.3137 5.3818-7.3137 5.3818v11.178z" fill="url(#linearGradient2430)"/>
       <rect x="628.93" y="438.14" width="35.741" height="30.497" ry="1.7939" fill="url(#linearGradient2432)"/>
       <path d="m643.62 464.91 0.0804-11.359s-3.5447-0.48337-3.5447-6.0421 6.5333-5.6393 6.5333-5.6393 6.7041 0.0132 6.7594 5.2365c0.0602 5.7197-3.3835 6.3645-3.3835 6.3645l-0.055 11.381z" fill="#6d3f04" fill-opacity=".24138"/>
      </g>
     </g>
    </g>
   </g>
   <g transform="rotate(.22716 -18.251 60210)">
    <g transform="matrix(.042736 0 0 .042736 2.1337 261.14)">
     <g transform="translate(136.42 -2.8725)">
      <g transform="matrix(.81302 0 0 .81302 107.85 103.78)">
       <g transform="matrix(1.2028 0 0 1.2028 -87.129 -87.326)" fill-rule="evenodd">
        <path d="m505.74 442.54a61.62 61.62 0 1 1 -123.24 0 61.62 61.62 0 1 1 123.24 0z" color="#000000" fill="url(#radialGradient4808)"/>
        <path transform="matrix(.63934 0 0 .63934 600.11 314.59)" d="m-179.81 166.46a61.62 61.62 0 1 1 -123.24 0 61.62 61.62 0 1 1 123.24 0z" color="#000000" fill="#fff" fill-opacity=".13725" filter="url(#filter3806-0)"/>
       </g>
      </g>
      <g transform="matrix(.81302 0 0 .81302 257.08 117.85)">
       <path d="m331.58 427.14a68.096 68.096 0 1 1 -136.19 0 68.096 68.096 0 1 1 136.19 0z" color="#000000" fill="#ffe8d5" fill-opacity=".057471" fill-rule="evenodd" stroke-width="1.1051"/>
      </g>
      <g transform="matrix(.52582 .2009 -.2009 .52582 224.92 80.796)">
       <path d="m632.24 438.14v-12.833s0.41479-9.255 13.661-9.1076c14.848 0.16531 15.323 7.1592 15.179 7.5898v14.352h-7.1757v-11.04s0-5.3818-7.1757-5.5198-7.3137 5.3818-7.3137 5.3818v11.178z" fill="url(#linearGradient2430)"/>
       <rect x="628.93" y="438.14" width="35.741" height="30.497" ry="1.7939" fill="url(#linearGradient2432)"/>
       <path d="m643.62 464.91 0.0804-11.359s-3.5447-0.48337-3.5447-6.0421 6.5333-5.6393 6.5333-5.6393 6.7041 0.0132 6.7594 5.2365c0.0602 5.7197-3.3835 6.3645-3.3835 6.3645l-0.055 11.381z" fill="#6d3f04" fill-opacity=".24138"/>
      </g>
     </g>
     <g transform="translate(298.8 -2.8725)">
      <g transform="matrix(.81302 0 0 .81302 107.85 103.78)">
       <g transform="matrix(1.2028 0 0 1.2028 -87.129 -87.326)" fill-rule="evenodd">
        <path d="m505.74 442.54a61.62 61.62 0 1 1 -123.24 0 61.62 61.62 0 1 1 123.24 0z" color="#000000" fill="url(#radialGradient4808)"/>
        <path transform="matrix(.63934 0 0 .63934 600.11 314.59)" d="m-179.81 166.46a61.62 61.62 0 1 1 -123.24 0 61.62 61.62 0 1 1 123.24 0z" color="#000000" fill="#fff" fill-opacity=".13725" filter="url(#filter3806-0)"/>
       </g>
      </g>
      <g transform="matrix(.81302 0 0 .81302 257.08 117.85)">
       <path d="m331.58 427.14a68.096 68.096 0 1 1 -136.19 0 68.096 68.096 0 1 1 136.19 0z" color="#000000" fill="#ffe8d5" fill-opacity=".057471" fill-rule="evenodd" stroke-width="1.1051"/>
      </g>
      <g transform="matrix(.52582 .2009 -.2009 .52582 224.92 80.796)">
       <path d="m632.24 438.14v-12.833s0.41479-9.255 13.661-9.1076c14.848 0.16531 15.323 7.1592 15.179 7.5898v14.352h-7.1757v-11.04s0-5.3818-7.1757-5.5198-7.3137 5.3818-7.3137 5.3818v11.178z" fill="url(#linearGradient2430)"/>
       <rect x="628.93" y="438.14" width="35.741" height="30.497" ry="1.7939" fill="url(#linearGradient2432)"/>
       <path d="m643.62 464.91 0.0804-11.359s-3.5447-0.48337-3.5447-6.0421 6.5333-5.6393 6.5333-5.6393 6.7041 0.0132 6.7594 5.2365c0.0602 5.7197-3.3835 6.3645-3.3835 6.3645l-0.055 11.381z" fill="#6d3f04" fill-opacity=".24138"/>
      </g>
     </g>
     <g transform="translate(461.18 -2.8725)">
      <g transform="matrix(.81302 0 0 .81302 107.85 103.78)">
       <g transform="matrix(1.2028 0 0 1.2028 -87.129 -87.326)" fill-rule="evenodd">
        <path d="m505.74 442.54a61.62 61.62 0 1 1 -123.24 0 61.62 61.62 0 1 1 123.24 0z" color="#000000" fill="url(#radialGradient4808)"/>
        <path transform="matrix(.63934 0 0 .63934 600.11 314.59)" d="m-179.81 166.46a61.62 61.62 0 1 1 -123.24 0 61.62 61.62 0 1 1 123.24 0z" color="#000000" fill="#fff" fill-opacity=".13725" filter="url(#filter3806-0)"/>
       </g>
      </g>
      <g transform="matrix(.81302 0 0 .81302 257.08 117.85)">
       <path d="m331.58 427.14a68.096 68.096 0 1 1 -136.19 0 68.096 68.096 0 1 1 136.19 0z" color="#000000" fill="#ffe8d5" fill-opacity=".057471" fill-rule="evenodd" stroke-width="1.1051"/>
      </g>
      <g transform="matrix(.52582 .2009 -.2009 .52582 224.92 80.796)">
       <path d="m632.24 438.14v-12.833s0.41479-9.255 13.661-9.1076c14.848 0.16531 15.323 7.1592 15.179 7.5898v14.352h-7.1757v-11.04s0-5.3818-7.1757-5.5198-7.3137 5.3818-7.3137 5.3818v11.178z" fill="url(#linearGradient2430)"/>
       <rect x="628.93" y="438.14" width="35.741" height="30.497" ry="1.7939" fill="url(#linearGradient2432)"/>
       <path d="m643.62 464.91 0.0804-11.359s-3.5447-0.48337-3.5447-6.0421 6.5333-5.6393 6.5333-5.6393 6.7041 0.0132 6.7594 5.2365c0.0602 5.7197-3.3835 6.3645-3.3835 6.3645l-0.055 11.381z" fill="#6d3f04" fill-opacity=".24138"/>
      </g>
     </g>
    </g>
   </g>
   <g transform="rotate(.22716 -7.7587 65503)">
    <g transform="matrix(.042736 0 0 .042736 2.1337 261.14)">
     <g transform="translate(136.42 -2.8725)">
      <g transform="matrix(.81302 0 0 .81302 107.85 103.78)">
       <g transform="matrix(1.2028 0 0 1.2028 -87.129 -87.326)" fill-rule="evenodd">
        <path d="m505.74 442.54a61.62 61.62 0 1 1 -123.24 0 61.62 61.62 0 1 1 123.24 0z" color="#000000" fill="url(#radialGradient4808)"/>
        <path transform="matrix(.63934 0 0 .63934 600.11 314.59)" d="m-179.81 166.46a61.62 61.62 0 1 1 -123.24 0 61.62 61.62 0 1 1 123.24 0z" color="#000000" fill="#fff" fill-opacity=".13725" filter="url(#filter3806-0)"/>
       </g>
      </g>
      <g transform="matrix(.81302 0 0 .81302 257.08 117.85)">
       <path d="m331.58 427.14a68.096 68.096 0 1 1 -136.19 0 68.096 68.096 0 1 1 136.19 0z" color="#000000" fill="#ffe8d5" fill-opacity=".057471" fill-rule="evenodd" stroke-width="1.1051"/>
      </g>
      <g transform="matrix(.52582 .2009 -.2009 .52582 224.92 80.796)">
       <path d="m632.24 438.14v-12.833s0.41479-9.255 13.661-9.1076c14.848 0.16531 15.323 7.1592 15.179 7.5898v14.352h-7.1757v-11.04s0-5.3818-7.1757-5.5198-7.3137 5.3818-7.3137 5.3818v11.178z" fill="url(#linearGradient2430)"/>
       <rect x="628.93" y="438.14" width="35.741" height="30.497" ry="1.7939" fill="url(#linearGradient2432)"/>
       <path d="m643.62 464.91 0.0804-11.359s-3.5447-0.48337-3.5447-6.0421 6.5333-5.6393 6.5333-5.6393 6.7041 0.0132 6.7594 5.2365c0.0602 5.7197-3.3835 6.3645-3.3835 6.3645l-0.055 11.381z" fill="#6d3f04" fill-opacity=".24138"/>
      </g>
     </g>
     <g transform="translate(298.8 -2.8725)">
      <g transform="matrix(.81302 0 0 .81302 107.85 103.78)">
       <g transform="matrix(1.2028 0 0 1.2028 -87.129 -87.326)" fill-rule="evenodd">
        <path d="m505.74 442.54a61.62 61.62 0 1 1 -123.24 0 61.62 61.62 0 1 1 123.24 0z" color="#000000" fill="url(#radialGradient4808)"/>
        <path transform="matrix(.63934 0 0 .63934 600.11 314.59)" d="m-179.81 166.46a61.62 61.62 0 1 1 -123.24 0 61.62 61.62 0 1 1 123.24 0z" color="#000000" fill="#fff" fill-opacity=".13725" filter="url(#filter3806-0)"/>
       </g>
      </g>
      <g transform="matrix(.81302 0 0 .81302 257.08 117.85)">
       <path d="m331.58 427.14a68.096 68.096 0 1 1 -136.19 0 68.096 68.096 0 1 1 136.19 0z" color="#000000" fill="#ffe8d5" fill-opacity=".057471" fill-rule="evenodd" stroke-width="1.1051"/>
      </g>
      <g transform="matrix(.52582 .2009 -.2009 .52582 224.92 80.796)">
       <path d="m632.24 438.14v-12.833s0.41479-9.255 13.661-9.1076c14.848 0.16531 15.323 7.1592 15.179 7.5898v14.352h-7.1757v-11.04s0-5.3818-7.1757-5.5198-7.3137 5.3818-7.3137 5.3818v11.178z" fill="url(#linearGradient2430)"/>
       <rect x="628.93" y="438.14" width="35.741" height="30.497" ry="1.7939" fill="url(#linearGradient2432)"/>
       <path d="m643.62 464.91 0.0804-11.359s-3.5447-0.48337-3.5447-6.0421 6.5333-5.6393 6.5333-5.6393 6.7041 0.0132 6.7594 5.2365c0.0602 5.7197-3.3835 6.3645-3.3835 6.3645l-0.055 11.381z" fill="#6d3f04" fill-opacity=".24138"/>
      </g>
     </g>
     <g transform="translate(461.18 -2.8725)">
      <g transform="matrix(.81302 0 0 .81302 107.85 103.78)">
       <g transform="matrix(1.2028 0 0 1.2028 -87.129 -87.326)" fill-rule="evenodd">
        <path d="m505.74 442.54a61.62 61.62 0 1 1 -123.24 0 61.62 61.62 0 1 1 123.24 0z" color="#000000" fill="url(#radialGradient4808)"/>
        <path transform="matrix(.63934 0 0 .63934 600.11 314.59)" d="m-179.81 166.46a61.62 61.62 0 1 1 -123.24 0 61.62 61.62 0 1 1 123.24 0z" color="#000000" fill="#fff" fill-opacity=".13725" filter="url(#filter3806-0)"/>
       </g>
      </g>
      <g transform="matrix(.81302 0 0 .81302 257.08 117.85)">
       <path d="m331.58 427.14a68.096 68.096 0 1 1 -136.19 0 68.096 68.096 0 1 1 136.19 0z" color="#000000" fill="#ffe8d5" fill-opacity=".057471" fill-rule="evenodd" stroke-width="1.1051"/>
      </g>
      <g transform="matrix(.52582 .2009 -.2009 .52582 224.92 80.796)">
       <path d="m632.24 438.14v-12.833s0.41479-9.255 13.661-9.1076c14.848 0.16531 15.323 7.1592 15.179 7.5898v14.352h-7.1757v-11.04s0-5.3818-7.1757-5.5198-7.3137 5.3818-7.3137 5.3818v11.178z" fill="url(#linearGradient2430)"/>
       <rect x="628.93" y="438.14" width="35.741" height="30.497" ry="1.7939" fill="url(#linearGradient2432)"/>
       <path d="m643.62 464.91 0.0804-11.359s-3.5447-0.48337-3.5447-6.0421 6.5333-5.6393 6.5333-5.6393 6.7041 0.0132 6.7594 5.2365c0.0602 5.7197-3.3835 6.3645-3.3835 6.3645l-0.055 11.381z" fill="#6d3f04" fill-opacity=".24138"/>
      </g>
     </g>
    </g>
   </g>
   <g transform="rotate(.22716 51.844 70795)">
    <g transform="matrix(.042736 0 0 .042736 2.1337 261.14)">
     <g transform="translate(136.42 -2.8725)">
      <g transform="matrix(.81302 0 0 .81302 107.85 103.78)">
       <g transform="matrix(1.2028 0 0 1.2028 -87.129 -87.326)" fill-rule="evenodd">
        <path d="m505.74 442.54a61.62 61.62 0 1 1 -123.24 0 61.62 61.62 0 1 1 123.24 0z" color="#000000" fill="url(#radialGradient4808)"/>
        <path transform="matrix(.63934 0 0 .63934 600.11 314.59)" d="m-179.81 166.46a61.62 61.62 0 1 1 -123.24 0 61.62 61.62 0 1 1 123.24 0z" color="#000000" fill="#fff" fill-opacity=".13725" filter="url(#filter3806-0)"/>
       </g>
      </g>
      <g transform="matrix(.81302 0 0 .81302 257.08 117.85)">
       <path d="m331.58 427.14a68.096 68.096 0 1 1 -136.19 0 68.096 68.096 0 1 1 136.19 0z" color="#000000" fill="#ffe8d5" fill-opacity=".057471" fill-rule="evenodd" stroke-width="1.1051"/>
      </g>
      <g transform="matrix(.52582 .2009 -.2009 .52582 224.92 80.796)">
       <path d="m632.24 438.14v-12.833s0.41479-9.255 13.661-9.1076c14.848 0.16531 15.323 7.1592 15.179 7.5898v14.352h-7.1757v-11.04s0-5.3818-7.1757-5.5198-7.3137 5.3818-7.3137 5.3818v11.178z" fill="url(#linearGradient2430)"/>
       <rect x="628.93" y="438.14" width="35.741" height="30.497" ry="1.7939" fill="url(#linearGradient2432)"/>
       <path d="m643.62 464.91 0.0804-11.359s-3.5447-0.48337-3.5447-6.0421 6.5333-5.6393 6.5333-5.6393 6.7041 0.0132 6.7594 5.2365c0.0602 5.7197-3.3835 6.3645-3.3835 6.3645l-0.055 11.381z" fill="#6d3f04" fill-opacity=".24138"/>
      </g>
     </g>
     <g transform="translate(298.8 -2.8725)">
      <g transform="matrix(.81302 0 0 .81302 107.85 103.78)">
       <g transform="matrix(1.2028 0 0 1.2028 -87.129 -87.326)" fill-rule="evenodd">
        <path d="m505.74 442.54a61.62 61.62 0 1 1 -123.24 0 61.62 61.62 0 1 1 123.24 0z" color="#000000" fill="url(#radialGradient4808)"/>
        <path transform="matrix(.63934 0 0 .63934 600.11 314.59)" d="m-179.81 166.46a61.62 61.62 0 1 1 -123.24 0 61.62 61.62 0 1 1 123.24 0z" color="#000000" fill="#fff" fill-opacity=".13725" filter="url(#filter3806-0)"/>
       </g>
      </g>
      <g transform="matrix(.81302 0 0 .81302 257.08 117.85)">
       <path d="m331.58 427.14a68.096 68.096 0 1 1 -136.19 0 68.096 68.096 0 1 1 136.19 0z" color="#000000" fill="#ffe8d5" fill-opacity=".057471" fill-rule="evenodd" stroke-width="1.1051"/>
      </g>
      <g transform="matrix(.52582 .2009 -.2009 .52582 224.92 80.796)">
       <path d="m632.24 438.14v-12.833s0.41479-9.255 13.661-9.1076c14.848 0.16531 15.323 7.1592 15.179 7.5898v14.352h-7.1757v-11.04s0-5.3818-7.1757-5.5198-7.3137 5.3818-7.3137 5.3818v11.178z" fill="url(#linearGradient2430)"/>
       <rect x="628.93" y="438.14" width="35.741" height="30.497" ry="1.7939" fill="url(#linearGradient2432)"/>
       <path d="m643.62 464.91 0.0804-11.359s-3.5447-0.48337-3.5447-6.0421 6.5333-5.6393 6.5333-5.6393 6.7041 0.0132 6.7594 5.2365c0.0602 5.7197-3.3835 6.3645-3.3835 6.3645l-0.055 11.381z" fill="#6d3f04" fill-opacity=".24138"/>
      </g>
     </g>
     <g transform="translate(461.18 -2.8725)">
      <g transform="matrix(.81302 0 0 .81302 107.85 103.78)">
       <g transform="matrix(1.2028 0 0 1.2028 -87.129 -87.326)" fill-rule="evenodd">
        <path d="m505.74 442.54a61.62 61.62 0 1 1 -123.24 0 61.62 61.62 0 1 1 123.24 0z" color="#000000" fill="url(#radialGradient4808)"/>
        <path transform="matrix(.63934 0 0 .63934 600.11 314.59)" d="m-179.81 166.46a61.62 61.62 0 1 1 -123.24 0 61.62 61.62 0 1 1 123.24 0z" color="#000000" fill="#fff" fill-opacity=".13725" filter="url(#filter3806-0)"/>
       </g>
      </g>
      <g transform="matrix(.81302 0 0 .81302 257.08 117.85)">
       <path d="m331.58 427.14a68.096 68.096 0 1 1 -136.19 0 68.096 68.096 0 1 1 136.19 0z" color="#000000" fill="#ffe8d5" fill-opacity=".057471" fill-rule="evenodd" stroke-width="1.1051"/>
      </g>
      <g transform="matrix(.52582 .2009 -.2009 .52582 224.92 80.796)">
       <path d="m632.24 438.14v-12.833s0.41479-9.255 13.661-9.1076c14.848 0.16531 15.323 7.1592 15.179 7.5898v14.352h-7.1757v-11.04s0-5.3818-7.1757-5.5198-7.3137 5.3818-7.3137 5.3818v11.178z" fill="url(#linearGradient2430)"/>
       <rect x="628.93" y="438.14" width="35.741" height="30.497" ry="1.7939" fill="url(#linearGradient2432)"/>
       <path d="m643.62 464.91 0.0804-11.359s-3.5447-0.48337-3.5447-6.0421 6.5333-5.6393 6.5333-5.6393 6.7041 0.0132 6.7594 5.2365c0.0602 5.7197-3.3835 6.3645-3.3835 6.3645l-0.055 11.381z" fill="#6d3f04" fill-opacity=".24138"/>
      </g>
     </g>
    </g>
   </g>
   <g transform="rotate(.22716 62.336 76088)">
    <g transform="matrix(.042736 0 0 .042736 2.1337 261.14)">
     <g transform="translate(136.42 -2.8725)">
      <g transform="matrix(.81302 0 0 .81302 107.85 103.78)">
       <g transform="matrix(1.2028 0 0 1.2028 -87.129 -87.326)" fill-rule="evenodd">
        <path d="m505.74 442.54a61.62 61.62 0 1 1 -123.24 0 61.62 61.62 0 1 1 123.24 0z" color="#000000" fill="url(#radialGradient4808)"/>
        <path transform="matrix(.63934 0 0 .63934 600.11 314.59)" d="m-179.81 166.46a61.62 61.62 0 1 1 -123.24 0 61.62 61.62 0 1 1 123.24 0z" color="#000000" fill="#fff" fill-opacity=".13725" filter="url(#filter3806-0)"/>
       </g>
      </g>
      <g transform="matrix(.81302 0 0 .81302 257.08 117.85)">
       <path d="m331.58 427.14a68.096 68.096 0 1 1 -136.19 0 68.096 68.096 0 1 1 136.19 0z" color="#000000" fill="#ffe8d5" fill-opacity=".057471" fill-rule="evenodd" stroke-width="1.1051"/>
      </g>
      <g transform="matrix(.52582 .2009 -.2009 .52582 224.92 80.796)">
       <path d="m632.24 438.14v-12.833s0.41479-9.255 13.661-9.1076c14.848 0.16531 15.323 7.1592 15.179 7.5898v14.352h-7.1757v-11.04s0-5.3818-7.1757-5.5198-7.3137 5.3818-7.3137 5.3818v11.178z" fill="url(#linearGradient2430)"/>
       <rect x="628.93" y="438.14" width="35.741" height="30.497" ry="1.7939" fill="url(#linearGradient2432)"/>
       <path d="m643.62 464.91 0.0804-11.359s-3.5447-0.48337-3.5447-6.0421 6.5333-5.6393 6.5333-5.6393 6.7041 0.0132 6.7594 5.2365c0.0602 5.7197-3.3835 6.3645-3.3835 6.3645l-0.055 11.381z" fill="#6d3f04" fill-opacity=".24138"/>
      </g>
     </g>
     <g transform="translate(298.8 -2.8725)">
      <g transform="matrix(.81302 0 0 .81302 107.85 103.78)">
       <g transform="matrix(1.2028 0 0 1.2028 -87.129 -87.326)" fill-rule="evenodd">
        <path d="m505.74 442.54a61.62 61.62 0 1 1 -123.24 0 61.62 61.62 0 1 1 123.24 0z" color="#000000" fill="url(#radialGradient4808)"/>
        <path transform="matrix(.63934 0 0 .63934 600.11 314.59)" d="m-179.81 166.46a61.62 61.62 0 1 1 -123.24 0 61.62 61.62 0 1 1 123.24 0z" color="#000000" fill="#fff" fill-opacity=".13725" filter="url(#filter3806-0)"/>
       </g>
      </g>
      <g transform="matrix(.81302 0 0 .81302 257.08 117.85)">
       <path d="m331.58 427.14a68.096 68.096 0 1 1 -136.19 0 68.096 68.096 0 1 1 136.19 0z" color="#000000" fill="#ffe8d5" fill-opacity=".057471" fill-rule="evenodd" stroke-width="1.1051"/>
      </g>
      <g transform="matrix(.52582 .2009 -.2009 .52582 224.92 80.796)">
       <path d="m632.24 438.14v-12.833s0.41479-9.255 13.661-9.1076c14.848 0.16531 15.323 7.1592 15.179 7.5898v14.352h-7.1757v-11.04s0-5.3818-7.1757-5.5198-7.3137 5.3818-7.3137 5.3818v11.178z" fill="url(#linearGradient2430)"/>
       <rect x="628.93" y="438.14" width="35.741" height="30.497" ry="1.7939" fill="url(#linearGradient2432)"/>
       <path d="m643.62 464.91 0.0804-11.359s-3.5447-0.48337-3.5447-6.0421 6.5333-5.6393 6.5333-5.6393 6.7041 0.0132 6.7594 5.2365c0.0602 5.7197-3.3835 6.3645-3.3835 6.3645l-0.055 11.381z" fill="#6d3f04" fill-opacity=".24138"/>
      </g>
     </g>
     <g transform="translate(461.18 -2.8725)">
      <g transform="matrix(.81302 0 0 .81302 107.85 103.78)">
       <g transform="matrix(1.2028 0 0 1.2028 -87.129 -87.326)" fill-rule="evenodd">
        <path d="m505.74 442.54a61.62 61.62 0 1 1 -123.24 0 61.62 61.62 0 1 1 123.24 0z" color="#000000" fill="url(#radialGradient4808)"/>
        <path transform="matrix(.63934 0 0 .63934 600.11 314.59)" d="m-179.81 166.46a61.62 61.62 0 1 1 -123.24 0 61.62 61.62 0 1 1 123.24 0z" color="#000000" fill="#fff" fill-opacity=".13725" filter="url(#filter3806-0)"/>
       </g>
      </g>
      <g transform="matrix(.81302 0 0 .81302 257.08 117.85)">
       <path d="m331.58 427.14a68.096 68.096 0 1 1 -136.19 0 68.096 68.096 0 1 1 136.19 0z" color="#000000" fill="#ffe8d5" fill-opacity=".057471" fill-rule="evenodd" stroke-width="1.1051"/>
      </g>
      <g transform="matrix(.52582 .2009 -.2009 .52582 224.92 80.796)">
       <path d="m632.24 438.14v-12.833s0.41479-9.255 13.661-9.1076c14.848 0.16531 15.323 7.1592 15.179 7.5898v14.352h-7.1757v-11.04s0-5.3818-7.1757-5.5198-7.3137 5.3818-7.3137 5.3818v11.178z" fill="url(#linearGradient2430)"/>
       <rect x="628.93" y="438.14" width="35.741" height="30.497" ry="1.7939" fill="url(#linearGradient2432)"/>
       <path d="m643.62 464.91 0.0804-11.359s-3.5447-0.48337-3.5447-6.0421 6.5333-5.6393 6.5333-5.6393 6.7041 0.0132 6.7594 5.2365c0.0602 5.7197-3.3835 6.3645-3.3835 6.3645l-0.055 11.381z" fill="#6d3f04" fill-opacity=".24138"/>
      </g>
     </g>
    </g>
   </g>
   <g transform="rotate(.22716 84.294 81381)">
    <g transform="matrix(.042736 0 0 .042736 2.1337 261.14)">
     <g transform="translate(136.42 -2.8725)">
      <g transform="matrix(.81302 0 0 .81302 107.85 103.78)">
       <g transform="matrix(1.2028 0 0 1.2028 -87.129 -87.326)" fill-rule="evenodd">
        <path d="m505.74 442.54a61.62 61.62 0 1 1 -123.24 0 61.62 61.62 0 1 1 123.24 0z" color="#000000" fill="url(#radialGradient4808)"/>
        <path transform="matrix(.63934 0 0 .63934 600.11 314.59)" d="m-179.81 166.46a61.62 61.62 0 1 1 -123.24 0 61.62 61.62 0 1 1 123.24 0z" color="#000000" fill="#fff" fill-opacity=".13725" filter="url(#filter3806-0)"/>
       </g>
      </g>
      <g transform="matrix(.81302 0 0 .81302 257.08 117.85)">
       <path d="m331.58 427.14a68.096 68.096 0 1 1 -136.19 0 68.096 68.096 0 1 1 136.19 0z" color="#000000" fill="#ffe8d5" fill-opacity=".057471" fill-rule="evenodd" stroke-width="1.1051"/>
      </g>
      <g transform="matrix(.52582 .2009 -.2009 .52582 224.92 80.796)">
       <path d="m632.24 438.14v-12.833s0.41479-9.255 13.661-9.1076c14.848 0.16531 15.323 7.1592 15.179 7.5898v14.352h-7.1757v-11.04s0-5.3818-7.1757-5.5198-7.3137 5.3818-7.3137 5.3818v11.178z" fill="url(#linearGradient2430)"/>
       <rect x="628.93" y="438.14" width="35.741" height="30.497" ry="1.7939" fill="url(#linearGradient2432)"/>
       <path d="m643.62 464.91 0.0804-11.359s-3.5447-0.48337-3.5447-6.0421 6.5333-5.6393 6.5333-5.6393 6.7041 0.0132 6.7594 5.2365c0.0602 5.7197-3.3835 6.3645-3.3835 6.3645l-0.055 11.381z" fill="#6d3f04" fill-opacity=".24138"/>
      </g>
     </g>
     <g transform="translate(298.8 -2.8725)">
      <g transform="matrix(.81302 0 0 .81302 107.85 103.78)">
       <g transform="matrix(1.2028 0 0 1.2028 -87.129 -87.326)" fill-rule="evenodd">
        <path d="m505.74 442.54a61.62 61.62 0 1 1 -123.24 0 61.62 61.62 0 1 1 123.24 0z" color="#000000" fill="url(#radialGradient4808)"/>
        <path transform="matrix(.63934 0 0 .63934 600.11 314.59)" d="m-179.81 166.46a61.62 61.62 0 1 1 -123.24 0 61.62 61.62 0 1 1 123.24 0z" color="#000000" fill="#fff" fill-opacity=".13725" filter="url(#filter3806-0)"/>
       </g>
      </g>
      <g transform="matrix(.81302 0 0 .81302 257.08 117.85)">
       <path d="m331.58 427.14a68.096 68.096 0 1 1 -136.19 0 68.096 68.096 0 1 1 136.19 0z" color="#000000" fill="#ffe8d5" fill-opacity=".057471" fill-rule="evenodd" stroke-width="1.1051"/>
      </g>
      <g transform="matrix(.52582 .2009 -.2009 .52582 224.92 80.796)">
       <path d="m632.24 438.14v-12.833s0.41479-9.255 13.661-9.1076c14.848 0.16531 15.323 7.1592 15.179 7.5898v14.352h-7.1757v-11.04s0-5.3818-7.1757-5.5198-7.3137 5.3818-7.3137 5.3818v11.178z" fill="url(#linearGradient2430)"/>
       <rect x="628.93" y="438.14" width="35.741" height="30.497" ry="1.7939" fill="url(#linearGradient2432)"/>
       <path d="m643.62 464.91 0.0804-11.359s-3.5447-0.48337-3.5447-6.0421 6.5333-5.6393 6.5333-5.6393 6.7041 0.0132 6.7594 5.2365c0.0602 5.7197-3.3835 6.3645-3.3835 6.3645l-0.055 11.381z" fill="#6d3f04" fill-opacity=".24138"/>
      </g>
     </g>
     <g transform="translate(461.18 -2.8725)">
      <g transform="matrix(.81302 0 0 .81302 107.85 103.78)">
       <g transform="matrix(1.2028 0 0 1.2028 -87.129 -87.326)" fill-rule="evenodd">
        <path d="m505.74 442.54a61.62 61.62 0 1 1 -123.24 0 61.62 61.62 0 1 1 123.24 0z" color="#000000" fill="url(#radialGradient4808)"/>
        <path transform="matrix(.63934 0 0 .63934 600.11 314.59)" d="m-179.81 166.46a61.62 61.62 0 1 1 -123.24 0 61.62 61.62 0 1 1 123.24 0z" color="#000000" fill="#fff" fill-opacity=".13725" filter="url(#filter3806-0)"/>
       </g>
      </g>
      <g transform="matrix(.81302 0 0 .81302 257.08 117.85)">
       <path d="m331.58 427.14a68.096 68.096 0 1 1 -136.19 0 68.096 68.096 0 1 1 136.19 0z" color="#000000" fill="#ffe8d5" fill-opacity=".057471" fill-rule="evenodd" stroke-width="1.1051"/>
      </g>
      <g transform="matrix(.52582 .2009 -.2009 .52582 224.92 80.796)">
       <path d="m632.24 438.14v-12.833s0.41479-9.255 13.661-9.1076c14.848 0.16531 15.323 7.1592 15.179 7.5898v14.352h-7.1757v-11.04s0-5.3818-7.1757-5.5198-7.3137 5.3818-7.3137 5.3818v11.178z" fill="url(#linearGradient2430)"/>
       <rect x="628.93" y="438.14" width="35.741" height="30.497" ry="1.7939" fill="url(#linearGradient2432)"/>
       <path d="m643.62 464.91 0.0804-11.359s-3.5447-0.48337-3.5447-6.0421 6.5333-5.6393 6.5333-5.6393 6.7041 0.0132 6.7594 5.2365c0.0602 5.7197-3.3835 6.3645-3.3835 6.3645l-0.055 11.381z" fill="#6d3f04" fill-opacity=".24138"/>
      </g>
     </g>
    </g>
   </g>
   <g transform="rotate(.22716 94.786 86674)">
    <g transform="matrix(.042736 0 0 .042736 2.1337 261.14)">
     <g transform="translate(136.42 -2.8725)">
      <g transform="matrix(.81302 0 0 .81302 107.85 103.78)">
       <g transform="matrix(1.2028 0 0 1.2028 -87.129 -87.326)" fill-rule="evenodd">
        <path d="m505.74 442.54a61.62 61.62 0 1 1 -123.24 0 61.62 61.62 0 1 1 123.24 0z" color="#000000" fill="url(#radialGradient4808)"/>
        <path transform="matrix(.63934 0 0 .63934 600.11 314.59)" d="m-179.81 166.46a61.62 61.62 0 1 1 -123.24 0 61.62 61.62 0 1 1 123.24 0z" color="#000000" fill="#fff" fill-opacity=".13725" filter="url(#filter3806-0)"/>
       </g>
      </g>
      <g transform="matrix(.81302 0 0 .81302 257.08 117.85)">
       <path d="m331.58 427.14a68.096 68.096 0 1 1 -136.19 0 68.096 68.096 0 1 1 136.19 0z" color="#000000" fill="#ffe8d5" fill-opacity=".057471" fill-rule="evenodd" stroke-width="1.1051"/>
      </g>
      <g transform="matrix(.52582 .2009 -.2009 .52582 224.92 80.796)">
       <path d="m632.24 438.14v-12.833s0.41479-9.255 13.661-9.1076c14.848 0.16531 15.323 7.1592 15.179 7.5898v14.352h-7.1757v-11.04s0-5.3818-7.1757-5.5198-7.3137 5.3818-7.3137 5.3818v11.178z" fill="url(#linearGradient2430)"/>
       <rect x="628.93" y="438.14" width="35.741" height="30.497" ry="1.7939" fill="url(#linearGradient2432)"/>
       <path d="m643.62 464.91 0.0804-11.359s-3.5447-0.48337-3.5447-6.0421 6.5333-5.6393 6.5333-5.6393 6.7041 0.0132 6.7594 5.2365c0.0602 5.7197-3.3835 6.3645-3.3835 6.3645l-0.055 11.381z" fill="#6d3f04" fill-opacity=".24138"/>
      </g>
     </g>
     <g transform="translate(298.8 -2.8725)">
      <g transform="matrix(.81302 0 0 .81302 107.85 103.78)">
       <g transform="matrix(1.2028 0 0 1.2028 -87.129 -87.326)" fill-rule="evenodd">
        <path d="m505.74 442.54a61.62 61.62 0 1 1 -123.24 0 61.62 61.62 0 1 1 123.24 0z" color="#000000" fill="url(#radialGradient4808)"/>
        <path transform="matrix(.63934 0 0 .63934 600.11 314.59)" d="m-179.81 166.46a61.62 61.62 0 1 1 -123.24 0 61.62 61.62 0 1 1 123.24 0z" color="#000000" fill="#fff" fill-opacity=".13725" filter="url(#filter3806-0)"/>
       </g>
      </g>
      <g transform="matrix(.81302 0 0 .81302 257.08 117.85)">
       <path d="m331.58 427.14a68.096 68.096 0 1 1 -136.19 0 68.096 68.096 0 1 1 136.19 0z" color="#000000" fill="#ffe8d5" fill-opacity=".057471" fill-rule="evenodd" stroke-width="1.1051"/>
      </g>
      <g transform="matrix(.52582 .2009 -.2009 .52582 224.92 80.796)">
       <path d="m632.24 438.14v-12.833s0.41479-9.255 13.661-9.1076c14.848 0.16531 15.323 7.1592 15.179 7.5898v14.352h-7.1757v-11.04s0-5.3818-7.1757-5.5198-7.3137 5.3818-7.3137 5.3818v11.178z" fill="url(#linearGradient2430)"/>
       <rect x="628.93" y="438.14" width="35.741" height="30.497" ry="1.7939" fill="url(#linearGradient2432)"/>
       <path d="m643.62 464.91 0.0804-11.359s-3.5447-0.48337-3.5447-6.0421 6.5333-5.6393 6.5333-5.6393 6.7041 0.0132 6.7594 5.2365c0.0602 5.7197-3.3835 6.3645-3.3835 6.3645l-0.055 11.381z" fill="#6d3f04" fill-opacity=".24138"/>
      </g>
     </g>
     <g transform="translate(461.18 -2.8725)">
      <g transform="matrix(.81302 0 0 .81302 107.85 103.78)">
       <g transform="matrix(1.2028 0 0 1.2028 -87.129 -87.326)" fill-rule="evenodd">
        <path d="m505.74 442.54a61.62 61.62 0 1 1 -123.24 0 61.62 61.62 0 1 1 123.24 0z" color="#000000" fill="url(#radialGradient4808)"/>
        <path transform="matrix(.63934 0 0 .63934 600.11 314.59)" d="m-179.81 166.46a61.62 61.62 0 1 1 -123.24 0 61.62 61.62 0 1 1 123.24 0z" color="#000000" fill="#fff" fill-opacity=".13725" filter="url(#filter3806-0)"/>
       </g>
      </g>
      <g transform="matrix(.81302 0 0 .81302 257.08 117.85)">
       <path d="m331.58 427.14a68.096 68.096 0 1 1 -136.19 0 68.096 68.096 0 1 1 136.19 0z" color="#000000" fill="#ffe8d5" fill-opacity=".057471" fill-rule="evenodd" stroke-width="1.1051"/>
      </g>
      <g transform="matrix(.52582 .2009 -.2009 .52582 224.92 80.796)">
       <path d="m632.24 438.14v-12.833s0.41479-9.255 13.661-9.1076c14.848 0.16531 15.323 7.1592 15.179 7.5898v14.352h-7.1757v-11.04s0-5.3818-7.1757-5.5198-7.3137 5.3818-7.3137 5.3818v11.178z" fill="url(#linearGradient2430)"/>
       <rect x="628.93" y="438.14" width="35.741" height="30.497" ry="1.7939" fill="url(#linearGradient2432)"/>
       <path d="m643.62 464.91 0.0804-11.359s-3.5447-0.48337-3.5447-6.0421 6.5333-5.6393 6.5333-5.6393 6.7041 0.0132 6.7594 5.2365c0.0602 5.7197-3.3835 6.3645-3.3835 6.3645l-0.055 11.381z" fill="#6d3f04" fill-opacity=".24138"/>
      </g>
     </g>
    </g>
   </g>
  </g>
 </g>
</svg>
